<svg width="251" height="255" viewBox="0 0 251 255" fill="none" xmlns="http://www.w3.org/2000/svg">
<path d="M87.26 76.26H163.48V0H87.26V76.26ZM89.26 2.03998H161.48V74.26H89.26V2.03998Z" fill="url(#paint0_linear_34_384)"/>
<path d="M2 57.48H0V61.48H2V57.48Z" fill="url(#paint1_linear_34_384)"/>
<path d="M2 65.48H0V69.48H2V65.48Z" fill="url(#paint2_linear_34_384)"/>
<path d="M3.22 74.26H2V73.48H0V76.26H3.22V74.26Z" fill="url(#paint3_linear_34_384)"/>
<path d="M76.22 2.37012H74.22V6.37012H76.22V2.37012Z" fill="url(#paint4_linear_34_384)"/>
<path d="M2 33.48H0V37.48H2V33.48Z" fill="url(#paint5_linear_34_384)"/>
<path d="M2 49.48H0V53.48H2V49.48Z" fill="url(#paint6_linear_34_384)"/>
<path d="M2 41.48H0V45.48H2V41.48Z" fill="url(#paint7_linear_34_384)"/>
<path d="M75.22 74.26H71.22V76.26H76.22V74.37H75.22V74.26Z" fill="url(#paint8_linear_34_384)"/>
<path d="M76.22 50.3701H74.22V54.3701H76.22V50.3701Z" fill="url(#paint9_linear_34_384)"/>
<path d="M76.22 34.3701H74.22V38.3701H76.22V34.3701Z" fill="url(#paint10_linear_34_384)"/>
<path d="M76.22 42.3701H74.22V46.3701H76.22V42.3701Z" fill="url(#paint11_linear_34_384)"/>
<path d="M76.22 26.3701H74.22V30.3701H76.22V26.3701Z" fill="url(#paint12_linear_34_384)"/>
<path d="M76.22 10.3701H74.22V14.3701H76.22V10.3701Z" fill="url(#paint13_linear_34_384)"/>
<path d="M76.22 18.3701H74.22V22.3701H76.22V18.3701Z" fill="url(#paint14_linear_34_384)"/>
<path d="M2 25.48H0V29.48H2V25.48Z" fill="url(#paint15_linear_34_384)"/>
<path d="M76.22 58.3701H74.22V62.3701H76.22V58.3701Z" fill="url(#paint16_linear_34_384)"/>
<path d="M76.22 66.3701H74.22V70.3701H76.22V66.3701Z" fill="url(#paint17_linear_34_384)"/>
<path d="M67.22 74.26H63.22V76.26H67.22V74.26Z" fill="url(#paint18_linear_34_384)"/>
<path d="M51.22 74.26H47.22V76.26H51.22V74.26Z" fill="url(#paint19_linear_34_384)"/>
<path d="M40.5601 0.0400391H36.5601V2.04004H40.5601V0.0400391Z" fill="url(#paint20_linear_34_384)"/>
<path d="M48.5601 0.0400391H44.5601V2.04004H48.5601V0.0400391Z" fill="url(#paint21_linear_34_384)"/>
<path d="M32.5601 0.0400391H28.5601V2.04004H32.5601V0.0400391Z" fill="url(#paint22_linear_34_384)"/>
<path d="M43.22 74.26H39.22V76.26H43.22V74.26Z" fill="url(#paint23_linear_34_384)"/>
<path d="M59.22 74.26H55.22V76.26H59.22V74.26Z" fill="url(#paint24_linear_34_384)"/>
<path d="M64.5601 0.0400391H60.5601V2.04004H64.5601V0.0400391Z" fill="url(#paint25_linear_34_384)"/>
<path d="M72.5601 0.0400391H68.5601V2.04004H72.5601V0.0400391Z" fill="url(#paint26_linear_34_384)"/>
<path d="M2 17.48H0V21.48H2V17.48Z" fill="url(#paint27_linear_34_384)"/>
<path d="M56.5601 0.0400391H52.5601V2.04004H56.5601V0.0400391Z" fill="url(#paint28_linear_34_384)"/>
<path d="M19.22 74.26H15.22V76.26H19.22V74.26Z" fill="url(#paint29_linear_34_384)"/>
<path d="M11.22 74.26H7.21997V76.26H11.22V74.26Z" fill="url(#paint30_linear_34_384)"/>
<path d="M8.56006 0.0400391H4.56006V2.04004H8.56006V0.0400391Z" fill="url(#paint31_linear_34_384)"/>
<path d="M2 9.47998H0V13.48H2V9.47998Z" fill="url(#paint32_linear_34_384)"/>
<path d="M27.22 74.26H23.22V76.26H27.22V74.26Z" fill="url(#paint33_linear_34_384)"/>
<path d="M16.5601 0.0400391H12.5601V2.04004H16.5601V0.0400391Z" fill="url(#paint34_linear_34_384)"/>
<path d="M24.5601 0.0400391H20.5601V2.04004H24.5601V0.0400391Z" fill="url(#paint35_linear_34_384)"/>
<path d="M35.22 74.26H31.22V76.26H35.22V74.26Z" fill="url(#paint36_linear_34_384)"/>
<path d="M2 1.47998H0V5.47998H2V1.47998Z" fill="url(#paint37_linear_34_384)"/>
<path d="M176.52 49.48H174.52V53.48H176.52V49.48Z" fill="url(#paint38_linear_34_384)"/>
<path d="M176.52 57.48H174.52V61.48H176.52V57.48Z" fill="url(#paint39_linear_34_384)"/>
<path d="M177.75 74.26H176.52V73.48H174.52V76.26H177.75V74.26Z" fill="url(#paint40_linear_34_384)"/>
<path d="M176.52 41.48H174.52V45.48H176.52V41.48Z" fill="url(#paint41_linear_34_384)"/>
<path d="M176.52 65.48H174.52V69.48H176.52V65.48Z" fill="url(#paint42_linear_34_384)"/>
<path d="M176.52 9.47998H174.52V13.48H176.52V9.47998Z" fill="url(#paint43_linear_34_384)"/>
<path d="M250.74 10.3801H248.74V14.3801H250.74V10.3801Z" fill="url(#paint44_linear_34_384)"/>
<path d="M176.52 25.48H174.52V29.48H176.52V25.48Z" fill="url(#paint45_linear_34_384)"/>
<path d="M176.52 33.48H174.52V37.48H176.52V33.48Z" fill="url(#paint46_linear_34_384)"/>
<path d="M176.52 17.48H174.52V21.48H176.52V17.48Z" fill="url(#paint47_linear_34_384)"/>
<path d="M250.74 42.3801H248.74V46.3801H250.74V42.3801Z" fill="url(#paint48_linear_34_384)"/>
<path d="M250.74 34.3801H248.74V38.3801H250.74V34.3801Z" fill="url(#paint49_linear_34_384)"/>
<path d="M250.74 2.38013H248.74V6.38013H250.74V2.38013Z" fill="url(#paint50_linear_34_384)"/>
<path d="M250.74 18.3801H248.74V22.3801H250.74V18.3801Z" fill="url(#paint51_linear_34_384)"/>
<path d="M250.74 26.3801H248.74V30.3801H250.74V26.3801Z" fill="url(#paint52_linear_34_384)"/>
<path d="M250.74 50.3801H248.74V54.3801H250.74V50.3801Z" fill="url(#paint53_linear_34_384)"/>
<path d="M250.74 66.3801H248.74V70.3801H250.74V66.3801Z" fill="url(#paint54_linear_34_384)"/>
<path d="M249.75 74.26H245.75V76.26H250.75V74.38H249.75V74.26Z" fill="url(#paint55_linear_34_384)"/>
<path d="M250.74 58.3801H248.74V62.3801H250.74V58.3801Z" fill="url(#paint56_linear_34_384)"/>
<path d="M176.52 1.47998H174.52V5.47998H176.52V1.47998Z" fill="url(#paint57_linear_34_384)"/>
<path d="M223.08 0.0400391H219.08V2.04004H223.08V0.0400391Z" fill="url(#paint58_linear_34_384)"/>
<path d="M225.74 74.26H221.74V76.26H225.74V74.26Z" fill="url(#paint59_linear_34_384)"/>
<path d="M233.74 74.26H229.74V76.26H233.74V74.26Z" fill="url(#paint60_linear_34_384)"/>
<path d="M215.08 0.0400391H211.08V2.04004H215.08V0.0400391Z" fill="url(#paint61_linear_34_384)"/>
<path d="M217.74 74.26H213.74V76.26H217.74V74.26Z" fill="url(#paint62_linear_34_384)"/>
<path d="M247.08 0.0400391H243.08V2.04004H247.08V0.0400391Z" fill="url(#paint63_linear_34_384)"/>
<path d="M239.08 0.0400391H235.08V2.04004H239.08V0.0400391Z" fill="url(#paint64_linear_34_384)"/>
<path d="M241.74 74.26H237.74V76.26H241.74V74.26Z" fill="url(#paint65_linear_34_384)"/>
<path d="M231.08 0.0400391H227.08V2.04004H231.08V0.0400391Z" fill="url(#paint66_linear_34_384)"/>
<path d="M185.74 74.26H181.74V76.26H185.74V74.26Z" fill="url(#paint67_linear_34_384)"/>
<path d="M193.74 74.26H189.74V76.26H193.74V74.26Z" fill="url(#paint68_linear_34_384)"/>
<path d="M201.74 74.26H197.74V76.26H201.74V74.26Z" fill="url(#paint69_linear_34_384)"/>
<path d="M191.08 0.0400391H187.08V2.04004H191.08V0.0400391Z" fill="url(#paint70_linear_34_384)"/>
<path d="M183.08 0.0400391H179.08V2.04004H183.08V0.0400391Z" fill="url(#paint71_linear_34_384)"/>
<path d="M207.08 0.0400391H203.08V2.04004H207.08V0.0400391Z" fill="url(#paint72_linear_34_384)"/>
<path d="M199.08 0.0400391H195.08V2.04004H199.08V0.0400391Z" fill="url(#paint73_linear_34_384)"/>
<path d="M209.74 74.26H205.74V76.26H209.74V74.26Z" fill="url(#paint74_linear_34_384)"/>
<path d="M0 165.61H76.22V89.3901H0V165.61ZM2 91.3901H74.22V163.61H2V91.3901Z" fill="url(#paint75_linear_34_384)"/>
<path d="M161.48 163.61H160.48V165.61H163.48V162.61H161.48V163.61Z" fill="url(#paint76_linear_34_384)"/>
<path d="M106.78 163.61H102.65V165.61H106.78V163.61Z" fill="url(#paint77_linear_34_384)"/>
<path d="M123.31 163.61H119.18V165.61H123.31V163.61Z" fill="url(#paint78_linear_34_384)"/>
<path d="M115.05 163.61H110.92V165.61H115.05V163.61Z" fill="url(#paint79_linear_34_384)"/>
<path d="M131.57 163.61H127.44V165.61H131.57V163.61Z" fill="url(#paint80_linear_34_384)"/>
<path d="M139.83 163.61H135.7V165.61H139.83V163.61Z" fill="url(#paint81_linear_34_384)"/>
<path d="M156.35 163.61H152.22V165.61H156.35V163.61Z" fill="url(#paint82_linear_34_384)"/>
<path d="M98.52 163.61H94.39V165.61H98.52V163.61Z" fill="url(#paint83_linear_34_384)"/>
<path d="M148.09 163.61H143.96V165.61H148.09V163.61Z" fill="url(#paint84_linear_34_384)"/>
<path d="M90.26 163.61H89.26V162.61H87.26V165.61H90.26V163.61Z" fill="url(#paint85_linear_34_384)"/>
<path d="M89.26 137.82H87.26V141.95H89.26V137.82Z" fill="url(#paint86_linear_34_384)"/>
<path d="M89.26 146.08H87.26V150.21H89.26V146.08Z" fill="url(#paint87_linear_34_384)"/>
<path d="M89.26 154.34H87.26V158.47H89.26V154.34Z" fill="url(#paint88_linear_34_384)"/>
<path d="M89.26 129.56H87.26V133.69H89.26V129.56Z" fill="url(#paint89_linear_34_384)"/>
<path d="M89.26 104.78H87.26V108.91H89.26V104.78Z" fill="url(#paint90_linear_34_384)"/>
<path d="M89.26 96.52H87.26V100.65H89.26V96.52Z" fill="url(#paint91_linear_34_384)"/>
<path d="M89.26 121.3H87.26V125.43H89.26V121.3Z" fill="url(#paint92_linear_34_384)"/>
<path d="M89.26 113.04H87.26V117.17H89.26V113.04Z" fill="url(#paint93_linear_34_384)"/>
<path d="M89.26 91.3801H90.26V89.3801H87.26V92.3801H89.26V91.3801Z" fill="url(#paint94_linear_34_384)"/>
<path d="M148.09 89.3801H143.96V91.3801H148.09V89.3801Z" fill="url(#paint95_linear_34_384)"/>
<path d="M139.83 89.3801H135.7V91.3801H139.83V89.3801Z" fill="url(#paint96_linear_34_384)"/>
<path d="M98.52 89.3801H94.39V91.3801H98.52V89.3801Z" fill="url(#paint97_linear_34_384)"/>
<path d="M131.57 89.3801H127.44V91.3801H131.57V89.3801Z" fill="url(#paint98_linear_34_384)"/>
<path d="M115.05 89.3801H110.92V91.3801H115.05V89.3801Z" fill="url(#paint99_linear_34_384)"/>
<path d="M106.78 89.3801H102.65V91.3801H106.78V89.3801Z" fill="url(#paint100_linear_34_384)"/>
<path d="M123.31 89.3801H119.18V91.3801H123.31V89.3801Z" fill="url(#paint101_linear_34_384)"/>
<path d="M156.35 89.3801H152.22V91.3801H156.35V89.3801Z" fill="url(#paint102_linear_34_384)"/>
<path d="M160.48 91.3801H161.48V92.3801H163.48V89.3801H160.48V91.3801Z" fill="url(#paint103_linear_34_384)"/>
<path d="M163.48 113.04H161.48V117.17H163.48V113.04Z" fill="url(#paint104_linear_34_384)"/>
<path d="M163.48 104.78H161.48V108.91H163.48V104.78Z" fill="url(#paint105_linear_34_384)"/>
<path d="M163.48 96.52H161.48V100.65H163.48V96.52Z" fill="url(#paint106_linear_34_384)"/>
<path d="M163.48 121.3H161.48V125.43H163.48V121.3Z" fill="url(#paint107_linear_34_384)"/>
<path d="M163.48 146.08H161.48V150.21H163.48V146.08Z" fill="url(#paint108_linear_34_384)"/>
<path d="M163.48 137.82H161.48V141.95H163.48V137.82Z" fill="url(#paint109_linear_34_384)"/>
<path d="M163.48 154.34H161.48V158.47H163.48V154.34Z" fill="url(#paint110_linear_34_384)"/>
<path d="M163.48 129.56H161.48V133.69H163.48V129.56Z" fill="url(#paint111_linear_34_384)"/>
<path d="M87.26 255H163.48V178.78H87.26V255ZM89.26 180.78H161.48V253H89.26V180.78Z" fill="url(#paint112_linear_34_384)"/>
<path d="M174.52 165.61H250.74V89.3901H174.52V165.61ZM176.52 91.3901H248.74V163.61H176.52V91.3901Z" fill="url(#paint113_linear_34_384)"/>
<path d="M35.97 185.25L48.5 199.72L50.02 198.41L35.11 181.2L20.21 198.41L21.72 199.72L33.97 185.58V235.21H72.22V233.21H35.97V185.25Z" fill="url(#paint114_linear_34_384)"/>
<path d="M200.73 198.41L202.24 199.72L214.78 185.25V233.21H178.52V235.21H216.78V185.58L229.03 199.72L230.54 198.41L215.63 181.2L200.73 198.41Z" fill="url(#paint115_linear_34_384)"/>
<defs>
<linearGradient id="paint0_linear_34_384" x1="163.48" y1="0" x2="73.8039" y2="22.4073" gradientUnits="userSpaceOnUse">
<stop stop-color="#62F9BB"/>
<stop offset="1" stop-color="#776AF6"/>
</linearGradient>
<linearGradient id="paint1_linear_34_384" x1="2" y1="57.48" x2="-0.461538" y2="57.7877" gradientUnits="userSpaceOnUse">
<stop stop-color="#62F9BB"/>
<stop offset="1" stop-color="#776AF6"/>
</linearGradient>
<linearGradient id="paint2_linear_34_384" x1="2" y1="65.48" x2="-0.461538" y2="65.7877" gradientUnits="userSpaceOnUse">
<stop stop-color="#62F9BB"/>
<stop offset="1" stop-color="#776AF6"/>
</linearGradient>
<linearGradient id="paint3_linear_34_384" x1="3.22" y1="73.48" x2="-0.493614" y2="74.5553" gradientUnits="userSpaceOnUse">
<stop stop-color="#62F9BB"/>
<stop offset="1" stop-color="#776AF6"/>
</linearGradient>
<linearGradient id="paint4_linear_34_384" x1="76.22" y1="2.37012" x2="73.7584" y2="2.67781" gradientUnits="userSpaceOnUse">
<stop stop-color="#62F9BB"/>
<stop offset="1" stop-color="#776AF6"/>
</linearGradient>
<linearGradient id="paint5_linear_34_384" x1="2" y1="33.48" x2="-0.461538" y2="33.7877" gradientUnits="userSpaceOnUse">
<stop stop-color="#62F9BB"/>
<stop offset="1" stop-color="#776AF6"/>
</linearGradient>
<linearGradient id="paint6_linear_34_384" x1="2" y1="49.48" x2="-0.461538" y2="49.7877" gradientUnits="userSpaceOnUse">
<stop stop-color="#62F9BB"/>
<stop offset="1" stop-color="#776AF6"/>
</linearGradient>
<linearGradient id="paint7_linear_34_384" x1="2" y1="41.48" x2="-0.461538" y2="41.7877" gradientUnits="userSpaceOnUse">
<stop stop-color="#62F9BB"/>
<stop offset="1" stop-color="#776AF6"/>
</linearGradient>
<linearGradient id="paint8_linear_34_384" x1="76.22" y1="74.26" x2="71.7256" y2="77.069" gradientUnits="userSpaceOnUse">
<stop stop-color="#62F9BB"/>
<stop offset="1" stop-color="#776AF6"/>
</linearGradient>
<linearGradient id="paint9_linear_34_384" x1="76.22" y1="50.3701" x2="73.7584" y2="50.6778" gradientUnits="userSpaceOnUse">
<stop stop-color="#62F9BB"/>
<stop offset="1" stop-color="#776AF6"/>
</linearGradient>
<linearGradient id="paint10_linear_34_384" x1="76.22" y1="34.3701" x2="73.7584" y2="34.6778" gradientUnits="userSpaceOnUse">
<stop stop-color="#62F9BB"/>
<stop offset="1" stop-color="#776AF6"/>
</linearGradient>
<linearGradient id="paint11_linear_34_384" x1="76.22" y1="42.3701" x2="73.7584" y2="42.6778" gradientUnits="userSpaceOnUse">
<stop stop-color="#62F9BB"/>
<stop offset="1" stop-color="#776AF6"/>
</linearGradient>
<linearGradient id="paint12_linear_34_384" x1="76.22" y1="26.3701" x2="73.7584" y2="26.6778" gradientUnits="userSpaceOnUse">
<stop stop-color="#62F9BB"/>
<stop offset="1" stop-color="#776AF6"/>
</linearGradient>
<linearGradient id="paint13_linear_34_384" x1="76.22" y1="10.3701" x2="73.7584" y2="10.6778" gradientUnits="userSpaceOnUse">
<stop stop-color="#62F9BB"/>
<stop offset="1" stop-color="#776AF6"/>
</linearGradient>
<linearGradient id="paint14_linear_34_384" x1="76.22" y1="18.3701" x2="73.7584" y2="18.6778" gradientUnits="userSpaceOnUse">
<stop stop-color="#62F9BB"/>
<stop offset="1" stop-color="#776AF6"/>
</linearGradient>
<linearGradient id="paint15_linear_34_384" x1="2" y1="25.48" x2="-0.461538" y2="25.7877" gradientUnits="userSpaceOnUse">
<stop stop-color="#62F9BB"/>
<stop offset="1" stop-color="#776AF6"/>
</linearGradient>
<linearGradient id="paint16_linear_34_384" x1="76.22" y1="58.3701" x2="73.7584" y2="58.6778" gradientUnits="userSpaceOnUse">
<stop stop-color="#62F9BB"/>
<stop offset="1" stop-color="#776AF6"/>
</linearGradient>
<linearGradient id="paint17_linear_34_384" x1="76.22" y1="66.3701" x2="73.7584" y2="66.6778" gradientUnits="userSpaceOnUse">
<stop stop-color="#62F9BB"/>
<stop offset="1" stop-color="#776AF6"/>
</linearGradient>
<linearGradient id="paint18_linear_34_384" x1="67.22" y1="74.26" x2="63.22" y2="76.26" gradientUnits="userSpaceOnUse">
<stop stop-color="#62F9BB"/>
<stop offset="1" stop-color="#776AF6"/>
</linearGradient>
<linearGradient id="paint19_linear_34_384" x1="51.22" y1="74.26" x2="47.22" y2="76.26" gradientUnits="userSpaceOnUse">
<stop stop-color="#62F9BB"/>
<stop offset="1" stop-color="#776AF6"/>
</linearGradient>
<linearGradient id="paint20_linear_34_384" x1="40.5601" y1="0.0400391" x2="36.5601" y2="2.04004" gradientUnits="userSpaceOnUse">
<stop stop-color="#62F9BB"/>
<stop offset="1" stop-color="#776AF6"/>
</linearGradient>
<linearGradient id="paint21_linear_34_384" x1="48.5601" y1="0.0400391" x2="44.5601" y2="2.04004" gradientUnits="userSpaceOnUse">
<stop stop-color="#62F9BB"/>
<stop offset="1" stop-color="#776AF6"/>
</linearGradient>
<linearGradient id="paint22_linear_34_384" x1="32.5601" y1="0.0400391" x2="28.5601" y2="2.04004" gradientUnits="userSpaceOnUse">
<stop stop-color="#62F9BB"/>
<stop offset="1" stop-color="#776AF6"/>
</linearGradient>
<linearGradient id="paint23_linear_34_384" x1="43.22" y1="74.26" x2="39.22" y2="76.26" gradientUnits="userSpaceOnUse">
<stop stop-color="#62F9BB"/>
<stop offset="1" stop-color="#776AF6"/>
</linearGradient>
<linearGradient id="paint24_linear_34_384" x1="59.22" y1="74.26" x2="55.22" y2="76.26" gradientUnits="userSpaceOnUse">
<stop stop-color="#62F9BB"/>
<stop offset="1" stop-color="#776AF6"/>
</linearGradient>
<linearGradient id="paint25_linear_34_384" x1="64.5601" y1="0.0400391" x2="60.5601" y2="2.04004" gradientUnits="userSpaceOnUse">
<stop stop-color="#62F9BB"/>
<stop offset="1" stop-color="#776AF6"/>
</linearGradient>
<linearGradient id="paint26_linear_34_384" x1="72.5601" y1="0.0400391" x2="68.5601" y2="2.04004" gradientUnits="userSpaceOnUse">
<stop stop-color="#62F9BB"/>
<stop offset="1" stop-color="#776AF6"/>
</linearGradient>
<linearGradient id="paint27_linear_34_384" x1="2" y1="17.48" x2="-0.461538" y2="17.7877" gradientUnits="userSpaceOnUse">
<stop stop-color="#62F9BB"/>
<stop offset="1" stop-color="#776AF6"/>
</linearGradient>
<linearGradient id="paint28_linear_34_384" x1="56.5601" y1="0.0400391" x2="52.5601" y2="2.04004" gradientUnits="userSpaceOnUse">
<stop stop-color="#62F9BB"/>
<stop offset="1" stop-color="#776AF6"/>
</linearGradient>
<linearGradient id="paint29_linear_34_384" x1="19.22" y1="74.26" x2="15.22" y2="76.26" gradientUnits="userSpaceOnUse">
<stop stop-color="#62F9BB"/>
<stop offset="1" stop-color="#776AF6"/>
</linearGradient>
<linearGradient id="paint30_linear_34_384" x1="11.22" y1="74.26" x2="7.21997" y2="76.26" gradientUnits="userSpaceOnUse">
<stop stop-color="#62F9BB"/>
<stop offset="1" stop-color="#776AF6"/>
</linearGradient>
<linearGradient id="paint31_linear_34_384" x1="8.56006" y1="0.0400391" x2="4.56006" y2="2.04004" gradientUnits="userSpaceOnUse">
<stop stop-color="#62F9BB"/>
<stop offset="1" stop-color="#776AF6"/>
</linearGradient>
<linearGradient id="paint32_linear_34_384" x1="2" y1="9.47998" x2="-0.461538" y2="9.78767" gradientUnits="userSpaceOnUse">
<stop stop-color="#62F9BB"/>
<stop offset="1" stop-color="#776AF6"/>
</linearGradient>
<linearGradient id="paint33_linear_34_384" x1="27.22" y1="74.26" x2="23.22" y2="76.26" gradientUnits="userSpaceOnUse">
<stop stop-color="#62F9BB"/>
<stop offset="1" stop-color="#776AF6"/>
</linearGradient>
<linearGradient id="paint34_linear_34_384" x1="16.5601" y1="0.0400391" x2="12.5601" y2="2.04004" gradientUnits="userSpaceOnUse">
<stop stop-color="#62F9BB"/>
<stop offset="1" stop-color="#776AF6"/>
</linearGradient>
<linearGradient id="paint35_linear_34_384" x1="24.5601" y1="0.0400391" x2="20.5601" y2="2.04004" gradientUnits="userSpaceOnUse">
<stop stop-color="#62F9BB"/>
<stop offset="1" stop-color="#776AF6"/>
</linearGradient>
<linearGradient id="paint36_linear_34_384" x1="35.22" y1="74.26" x2="31.22" y2="76.26" gradientUnits="userSpaceOnUse">
<stop stop-color="#62F9BB"/>
<stop offset="1" stop-color="#776AF6"/>
</linearGradient>
<linearGradient id="paint37_linear_34_384" x1="2" y1="1.47998" x2="-0.461538" y2="1.78767" gradientUnits="userSpaceOnUse">
<stop stop-color="#62F9BB"/>
<stop offset="1" stop-color="#776AF6"/>
</linearGradient>
<linearGradient id="paint38_linear_34_384" x1="176.52" y1="49.48" x2="174.058" y2="49.7877" gradientUnits="userSpaceOnUse">
<stop stop-color="#62F9BB"/>
<stop offset="1" stop-color="#776AF6"/>
</linearGradient>
<linearGradient id="paint39_linear_34_384" x1="176.52" y1="57.48" x2="174.058" y2="57.7877" gradientUnits="userSpaceOnUse">
<stop stop-color="#62F9BB"/>
<stop offset="1" stop-color="#776AF6"/>
</linearGradient>
<linearGradient id="paint40_linear_34_384" x1="177.75" y1="73.48" x2="174.027" y2="74.5615" gradientUnits="userSpaceOnUse">
<stop stop-color="#62F9BB"/>
<stop offset="1" stop-color="#776AF6"/>
</linearGradient>
<linearGradient id="paint41_linear_34_384" x1="176.52" y1="41.48" x2="174.058" y2="41.7877" gradientUnits="userSpaceOnUse">
<stop stop-color="#62F9BB"/>
<stop offset="1" stop-color="#776AF6"/>
</linearGradient>
<linearGradient id="paint42_linear_34_384" x1="176.52" y1="65.48" x2="174.058" y2="65.7877" gradientUnits="userSpaceOnUse">
<stop stop-color="#62F9BB"/>
<stop offset="1" stop-color="#776AF6"/>
</linearGradient>
<linearGradient id="paint43_linear_34_384" x1="176.52" y1="9.47998" x2="174.058" y2="9.78767" gradientUnits="userSpaceOnUse">
<stop stop-color="#62F9BB"/>
<stop offset="1" stop-color="#776AF6"/>
</linearGradient>
<linearGradient id="paint44_linear_34_384" x1="250.74" y1="10.3801" x2="248.278" y2="10.6878" gradientUnits="userSpaceOnUse">
<stop stop-color="#62F9BB"/>
<stop offset="1" stop-color="#776AF6"/>
</linearGradient>
<linearGradient id="paint45_linear_34_384" x1="176.52" y1="25.48" x2="174.058" y2="25.7877" gradientUnits="userSpaceOnUse">
<stop stop-color="#62F9BB"/>
<stop offset="1" stop-color="#776AF6"/>
</linearGradient>
<linearGradient id="paint46_linear_34_384" x1="176.52" y1="33.48" x2="174.058" y2="33.7877" gradientUnits="userSpaceOnUse">
<stop stop-color="#62F9BB"/>
<stop offset="1" stop-color="#776AF6"/>
</linearGradient>
<linearGradient id="paint47_linear_34_384" x1="176.52" y1="17.48" x2="174.058" y2="17.7877" gradientUnits="userSpaceOnUse">
<stop stop-color="#62F9BB"/>
<stop offset="1" stop-color="#776AF6"/>
</linearGradient>
<linearGradient id="paint48_linear_34_384" x1="250.74" y1="42.3801" x2="248.278" y2="42.6878" gradientUnits="userSpaceOnUse">
<stop stop-color="#62F9BB"/>
<stop offset="1" stop-color="#776AF6"/>
</linearGradient>
<linearGradient id="paint49_linear_34_384" x1="250.74" y1="34.3801" x2="248.278" y2="34.6878" gradientUnits="userSpaceOnUse">
<stop stop-color="#62F9BB"/>
<stop offset="1" stop-color="#776AF6"/>
</linearGradient>
<linearGradient id="paint50_linear_34_384" x1="250.74" y1="2.38013" x2="248.278" y2="2.68782" gradientUnits="userSpaceOnUse">
<stop stop-color="#62F9BB"/>
<stop offset="1" stop-color="#776AF6"/>
</linearGradient>
<linearGradient id="paint51_linear_34_384" x1="250.74" y1="18.3801" x2="248.278" y2="18.6878" gradientUnits="userSpaceOnUse">
<stop stop-color="#62F9BB"/>
<stop offset="1" stop-color="#776AF6"/>
</linearGradient>
<linearGradient id="paint52_linear_34_384" x1="250.74" y1="26.3801" x2="248.278" y2="26.6878" gradientUnits="userSpaceOnUse">
<stop stop-color="#62F9BB"/>
<stop offset="1" stop-color="#776AF6"/>
</linearGradient>
<linearGradient id="paint53_linear_34_384" x1="250.74" y1="50.3801" x2="248.278" y2="50.6878" gradientUnits="userSpaceOnUse">
<stop stop-color="#62F9BB"/>
<stop offset="1" stop-color="#776AF6"/>
</linearGradient>
<linearGradient id="paint54_linear_34_384" x1="250.74" y1="66.3801" x2="248.278" y2="66.6878" gradientUnits="userSpaceOnUse">
<stop stop-color="#62F9BB"/>
<stop offset="1" stop-color="#776AF6"/>
</linearGradient>
<linearGradient id="paint55_linear_34_384" x1="250.75" y1="74.26" x2="246.256" y2="77.069" gradientUnits="userSpaceOnUse">
<stop stop-color="#62F9BB"/>
<stop offset="1" stop-color="#776AF6"/>
</linearGradient>
<linearGradient id="paint56_linear_34_384" x1="250.74" y1="58.3801" x2="248.278" y2="58.6878" gradientUnits="userSpaceOnUse">
<stop stop-color="#62F9BB"/>
<stop offset="1" stop-color="#776AF6"/>
</linearGradient>
<linearGradient id="paint57_linear_34_384" x1="176.52" y1="1.47998" x2="174.058" y2="1.78767" gradientUnits="userSpaceOnUse">
<stop stop-color="#62F9BB"/>
<stop offset="1" stop-color="#776AF6"/>
</linearGradient>
<linearGradient id="paint58_linear_34_384" x1="223.08" y1="0.0400391" x2="219.08" y2="2.04004" gradientUnits="userSpaceOnUse">
<stop stop-color="#62F9BB"/>
<stop offset="1" stop-color="#776AF6"/>
</linearGradient>
<linearGradient id="paint59_linear_34_384" x1="225.74" y1="74.26" x2="221.74" y2="76.26" gradientUnits="userSpaceOnUse">
<stop stop-color="#62F9BB"/>
<stop offset="1" stop-color="#776AF6"/>
</linearGradient>
<linearGradient id="paint60_linear_34_384" x1="233.74" y1="74.26" x2="229.74" y2="76.26" gradientUnits="userSpaceOnUse">
<stop stop-color="#62F9BB"/>
<stop offset="1" stop-color="#776AF6"/>
</linearGradient>
<linearGradient id="paint61_linear_34_384" x1="215.08" y1="0.0400391" x2="211.08" y2="2.04004" gradientUnits="userSpaceOnUse">
<stop stop-color="#62F9BB"/>
<stop offset="1" stop-color="#776AF6"/>
</linearGradient>
<linearGradient id="paint62_linear_34_384" x1="217.74" y1="74.26" x2="213.74" y2="76.26" gradientUnits="userSpaceOnUse">
<stop stop-color="#62F9BB"/>
<stop offset="1" stop-color="#776AF6"/>
</linearGradient>
<linearGradient id="paint63_linear_34_384" x1="247.08" y1="0.0400391" x2="243.08" y2="2.04004" gradientUnits="userSpaceOnUse">
<stop stop-color="#62F9BB"/>
<stop offset="1" stop-color="#776AF6"/>
</linearGradient>
<linearGradient id="paint64_linear_34_384" x1="239.08" y1="0.0400391" x2="235.08" y2="2.04004" gradientUnits="userSpaceOnUse">
<stop stop-color="#62F9BB"/>
<stop offset="1" stop-color="#776AF6"/>
</linearGradient>
<linearGradient id="paint65_linear_34_384" x1="241.74" y1="74.26" x2="237.74" y2="76.26" gradientUnits="userSpaceOnUse">
<stop stop-color="#62F9BB"/>
<stop offset="1" stop-color="#776AF6"/>
</linearGradient>
<linearGradient id="paint66_linear_34_384" x1="231.08" y1="0.0400391" x2="227.08" y2="2.04004" gradientUnits="userSpaceOnUse">
<stop stop-color="#62F9BB"/>
<stop offset="1" stop-color="#776AF6"/>
</linearGradient>
<linearGradient id="paint67_linear_34_384" x1="185.74" y1="74.26" x2="181.74" y2="76.26" gradientUnits="userSpaceOnUse">
<stop stop-color="#62F9BB"/>
<stop offset="1" stop-color="#776AF6"/>
</linearGradient>
<linearGradient id="paint68_linear_34_384" x1="193.74" y1="74.26" x2="189.74" y2="76.26" gradientUnits="userSpaceOnUse">
<stop stop-color="#62F9BB"/>
<stop offset="1" stop-color="#776AF6"/>
</linearGradient>
<linearGradient id="paint69_linear_34_384" x1="201.74" y1="74.26" x2="197.74" y2="76.26" gradientUnits="userSpaceOnUse">
<stop stop-color="#62F9BB"/>
<stop offset="1" stop-color="#776AF6"/>
</linearGradient>
<linearGradient id="paint70_linear_34_384" x1="191.08" y1="0.0400391" x2="187.08" y2="2.04004" gradientUnits="userSpaceOnUse">
<stop stop-color="#62F9BB"/>
<stop offset="1" stop-color="#776AF6"/>
</linearGradient>
<linearGradient id="paint71_linear_34_384" x1="183.08" y1="0.0400391" x2="179.08" y2="2.04004" gradientUnits="userSpaceOnUse">
<stop stop-color="#62F9BB"/>
<stop offset="1" stop-color="#776AF6"/>
</linearGradient>
<linearGradient id="paint72_linear_34_384" x1="207.08" y1="0.0400391" x2="203.08" y2="2.04004" gradientUnits="userSpaceOnUse">
<stop stop-color="#62F9BB"/>
<stop offset="1" stop-color="#776AF6"/>
</linearGradient>
<linearGradient id="paint73_linear_34_384" x1="199.08" y1="0.0400391" x2="195.08" y2="2.04004" gradientUnits="userSpaceOnUse">
<stop stop-color="#62F9BB"/>
<stop offset="1" stop-color="#776AF6"/>
</linearGradient>
<linearGradient id="paint74_linear_34_384" x1="209.74" y1="74.26" x2="205.74" y2="76.26" gradientUnits="userSpaceOnUse">
<stop stop-color="#62F9BB"/>
<stop offset="1" stop-color="#776AF6"/>
</linearGradient>
<linearGradient id="paint75_linear_34_384" x1="76.22" y1="89.3901" x2="-13.4506" y2="111.808" gradientUnits="userSpaceOnUse">
<stop stop-color="#62F9BB"/>
<stop offset="1" stop-color="#776AF6"/>
</linearGradient>
<linearGradient id="paint76_linear_34_384" x1="163.48" y1="162.61" x2="159.951" y2="163.492" gradientUnits="userSpaceOnUse">
<stop stop-color="#62F9BB"/>
<stop offset="1" stop-color="#776AF6"/>
</linearGradient>
<linearGradient id="paint77_linear_34_384" x1="106.78" y1="163.61" x2="102.704" y2="165.714" gradientUnits="userSpaceOnUse">
<stop stop-color="#62F9BB"/>
<stop offset="1" stop-color="#776AF6"/>
</linearGradient>
<linearGradient id="paint78_linear_34_384" x1="123.31" y1="163.61" x2="119.234" y2="165.714" gradientUnits="userSpaceOnUse">
<stop stop-color="#62F9BB"/>
<stop offset="1" stop-color="#776AF6"/>
</linearGradient>
<linearGradient id="paint79_linear_34_384" x1="115.05" y1="163.61" x2="110.974" y2="165.714" gradientUnits="userSpaceOnUse">
<stop stop-color="#62F9BB"/>
<stop offset="1" stop-color="#776AF6"/>
</linearGradient>
<linearGradient id="paint80_linear_34_384" x1="131.57" y1="163.61" x2="127.494" y2="165.714" gradientUnits="userSpaceOnUse">
<stop stop-color="#62F9BB"/>
<stop offset="1" stop-color="#776AF6"/>
</linearGradient>
<linearGradient id="paint81_linear_34_384" x1="139.83" y1="163.61" x2="135.754" y2="165.714" gradientUnits="userSpaceOnUse">
<stop stop-color="#62F9BB"/>
<stop offset="1" stop-color="#776AF6"/>
</linearGradient>
<linearGradient id="paint82_linear_34_384" x1="156.35" y1="163.61" x2="152.274" y2="165.714" gradientUnits="userSpaceOnUse">
<stop stop-color="#62F9BB"/>
<stop offset="1" stop-color="#776AF6"/>
</linearGradient>
<linearGradient id="paint83_linear_34_384" x1="98.52" y1="163.61" x2="94.4439" y2="165.714" gradientUnits="userSpaceOnUse">
<stop stop-color="#62F9BB"/>
<stop offset="1" stop-color="#776AF6"/>
</linearGradient>
<linearGradient id="paint84_linear_34_384" x1="148.09" y1="163.61" x2="144.014" y2="165.714" gradientUnits="userSpaceOnUse">
<stop stop-color="#62F9BB"/>
<stop offset="1" stop-color="#776AF6"/>
</linearGradient>
<linearGradient id="paint85_linear_34_384" x1="90.26" y1="162.61" x2="86.7306" y2="163.492" gradientUnits="userSpaceOnUse">
<stop stop-color="#62F9BB"/>
<stop offset="1" stop-color="#776AF6"/>
</linearGradient>
<linearGradient id="paint86_linear_34_384" x1="89.26" y1="137.82" x2="86.7961" y2="138.118" gradientUnits="userSpaceOnUse">
<stop stop-color="#62F9BB"/>
<stop offset="1" stop-color="#776AF6"/>
</linearGradient>
<linearGradient id="paint87_linear_34_384" x1="89.26" y1="146.08" x2="86.7961" y2="146.378" gradientUnits="userSpaceOnUse">
<stop stop-color="#62F9BB"/>
<stop offset="1" stop-color="#776AF6"/>
</linearGradient>
<linearGradient id="paint88_linear_34_384" x1="89.26" y1="154.34" x2="86.7961" y2="154.638" gradientUnits="userSpaceOnUse">
<stop stop-color="#62F9BB"/>
<stop offset="1" stop-color="#776AF6"/>
</linearGradient>
<linearGradient id="paint89_linear_34_384" x1="89.26" y1="129.56" x2="86.7961" y2="129.858" gradientUnits="userSpaceOnUse">
<stop stop-color="#62F9BB"/>
<stop offset="1" stop-color="#776AF6"/>
</linearGradient>
<linearGradient id="paint90_linear_34_384" x1="89.26" y1="104.78" x2="86.7961" y2="105.078" gradientUnits="userSpaceOnUse">
<stop stop-color="#62F9BB"/>
<stop offset="1" stop-color="#776AF6"/>
</linearGradient>
<linearGradient id="paint91_linear_34_384" x1="89.26" y1="96.52" x2="86.7961" y2="96.8183" gradientUnits="userSpaceOnUse">
<stop stop-color="#62F9BB"/>
<stop offset="1" stop-color="#776AF6"/>
</linearGradient>
<linearGradient id="paint92_linear_34_384" x1="89.26" y1="121.3" x2="86.7961" y2="121.598" gradientUnits="userSpaceOnUse">
<stop stop-color="#62F9BB"/>
<stop offset="1" stop-color="#776AF6"/>
</linearGradient>
<linearGradient id="paint93_linear_34_384" x1="89.26" y1="113.04" x2="86.7961" y2="113.338" gradientUnits="userSpaceOnUse">
<stop stop-color="#62F9BB"/>
<stop offset="1" stop-color="#776AF6"/>
</linearGradient>
<linearGradient id="paint94_linear_34_384" x1="90.26" y1="89.3801" x2="86.7306" y2="90.2625" gradientUnits="userSpaceOnUse">
<stop stop-color="#62F9BB"/>
<stop offset="1" stop-color="#776AF6"/>
</linearGradient>
<linearGradient id="paint95_linear_34_384" x1="148.09" y1="89.3801" x2="144.014" y2="91.4844" gradientUnits="userSpaceOnUse">
<stop stop-color="#62F9BB"/>
<stop offset="1" stop-color="#776AF6"/>
</linearGradient>
<linearGradient id="paint96_linear_34_384" x1="139.83" y1="89.3801" x2="135.754" y2="91.4844" gradientUnits="userSpaceOnUse">
<stop stop-color="#62F9BB"/>
<stop offset="1" stop-color="#776AF6"/>
</linearGradient>
<linearGradient id="paint97_linear_34_384" x1="98.52" y1="89.3801" x2="94.4439" y2="91.4844" gradientUnits="userSpaceOnUse">
<stop stop-color="#62F9BB"/>
<stop offset="1" stop-color="#776AF6"/>
</linearGradient>
<linearGradient id="paint98_linear_34_384" x1="131.57" y1="89.3801" x2="127.494" y2="91.4844" gradientUnits="userSpaceOnUse">
<stop stop-color="#62F9BB"/>
<stop offset="1" stop-color="#776AF6"/>
</linearGradient>
<linearGradient id="paint99_linear_34_384" x1="115.05" y1="89.3801" x2="110.974" y2="91.4844" gradientUnits="userSpaceOnUse">
<stop stop-color="#62F9BB"/>
<stop offset="1" stop-color="#776AF6"/>
</linearGradient>
<linearGradient id="paint100_linear_34_384" x1="106.78" y1="89.3801" x2="102.704" y2="91.4844" gradientUnits="userSpaceOnUse">
<stop stop-color="#62F9BB"/>
<stop offset="1" stop-color="#776AF6"/>
</linearGradient>
<linearGradient id="paint101_linear_34_384" x1="123.31" y1="89.3801" x2="119.234" y2="91.4844" gradientUnits="userSpaceOnUse">
<stop stop-color="#62F9BB"/>
<stop offset="1" stop-color="#776AF6"/>
</linearGradient>
<linearGradient id="paint102_linear_34_384" x1="156.35" y1="89.3801" x2="152.274" y2="91.4844" gradientUnits="userSpaceOnUse">
<stop stop-color="#62F9BB"/>
<stop offset="1" stop-color="#776AF6"/>
</linearGradient>
<linearGradient id="paint103_linear_34_384" x1="163.48" y1="89.3801" x2="159.951" y2="90.2625" gradientUnits="userSpaceOnUse">
<stop stop-color="#62F9BB"/>
<stop offset="1" stop-color="#776AF6"/>
</linearGradient>
<linearGradient id="paint104_linear_34_384" x1="163.48" y1="113.04" x2="161.016" y2="113.338" gradientUnits="userSpaceOnUse">
<stop stop-color="#62F9BB"/>
<stop offset="1" stop-color="#776AF6"/>
</linearGradient>
<linearGradient id="paint105_linear_34_384" x1="163.48" y1="104.78" x2="161.016" y2="105.078" gradientUnits="userSpaceOnUse">
<stop stop-color="#62F9BB"/>
<stop offset="1" stop-color="#776AF6"/>
</linearGradient>
<linearGradient id="paint106_linear_34_384" x1="163.48" y1="96.52" x2="161.016" y2="96.8183" gradientUnits="userSpaceOnUse">
<stop stop-color="#62F9BB"/>
<stop offset="1" stop-color="#776AF6"/>
</linearGradient>
<linearGradient id="paint107_linear_34_384" x1="163.48" y1="121.3" x2="161.016" y2="121.598" gradientUnits="userSpaceOnUse">
<stop stop-color="#62F9BB"/>
<stop offset="1" stop-color="#776AF6"/>
</linearGradient>
<linearGradient id="paint108_linear_34_384" x1="163.48" y1="146.08" x2="161.016" y2="146.378" gradientUnits="userSpaceOnUse">
<stop stop-color="#62F9BB"/>
<stop offset="1" stop-color="#776AF6"/>
</linearGradient>
<linearGradient id="paint109_linear_34_384" x1="163.48" y1="137.82" x2="161.016" y2="138.118" gradientUnits="userSpaceOnUse">
<stop stop-color="#62F9BB"/>
<stop offset="1" stop-color="#776AF6"/>
</linearGradient>
<linearGradient id="paint110_linear_34_384" x1="163.48" y1="154.34" x2="161.016" y2="154.638" gradientUnits="userSpaceOnUse">
<stop stop-color="#62F9BB"/>
<stop offset="1" stop-color="#776AF6"/>
</linearGradient>
<linearGradient id="paint111_linear_34_384" x1="163.48" y1="129.56" x2="161.016" y2="129.858" gradientUnits="userSpaceOnUse">
<stop stop-color="#62F9BB"/>
<stop offset="1" stop-color="#776AF6"/>
</linearGradient>
<linearGradient id="paint112_linear_34_384" x1="163.48" y1="178.78" x2="73.8094" y2="201.198" gradientUnits="userSpaceOnUse">
<stop stop-color="#62F9BB"/>
<stop offset="1" stop-color="#776AF6"/>
</linearGradient>
<linearGradient id="paint113_linear_34_384" x1="250.74" y1="89.3901" x2="161.069" y2="111.808" gradientUnits="userSpaceOnUse">
<stop stop-color="#62F9BB"/>
<stop offset="1" stop-color="#776AF6"/>
</linearGradient>
<linearGradient id="paint114_linear_34_384" x1="72.22" y1="181.2" x2="10.769" y2="195.994" gradientUnits="userSpaceOnUse">
<stop stop-color="#62F9BB"/>
<stop offset="1" stop-color="#776AF6"/>
</linearGradient>
<linearGradient id="paint115_linear_34_384" x1="230.54" y1="181.2" x2="169.079" y2="195.999" gradientUnits="userSpaceOnUse">
<stop stop-color="#62F9BB"/>
<stop offset="1" stop-color="#776AF6"/>
</linearGradient>
</defs>
</svg>
