<svg width="251" height="256" viewBox="0 0 251 256" fill="none" xmlns="http://www.w3.org/2000/svg">
<path d="M86.1301 202.7H82.1301V204.7H86.1301V202.7Z" fill="url(#paint0_linear_34_524)"/>
<path d="M94.1301 202.7H90.1301V204.7H94.1301V202.7Z" fill="url(#paint1_linear_34_524)"/>
<path d="M46.1301 204.7V202.7H44.8101L59.1201 190.3L57.8101 188.79L40.6001 203.7L57.8101 218.6L59.1201 217.09L44.8101 204.7H46.1301Z" fill="url(#paint2_linear_34_524)"/>
<path d="M54.1301 202.7H50.1301V204.7H54.1301V202.7Z" fill="url(#paint3_linear_34_524)"/>
<path d="M78.1301 202.7H74.1301V204.7H78.1301V202.7Z" fill="url(#paint4_linear_34_524)"/>
<path d="M110.13 202.7H106.13V204.7H110.13V202.7Z" fill="url(#paint5_linear_34_524)"/>
<path d="M70.1301 202.7H66.1301V204.7H70.1301V202.7Z" fill="url(#paint6_linear_34_524)"/>
<path d="M62.1301 202.7H58.1301V204.7H62.1301V202.7Z" fill="url(#paint7_linear_34_524)"/>
<path d="M166.13 202.7H162.13V204.7H166.13V202.7Z" fill="url(#paint8_linear_34_524)"/>
<path d="M118.13 202.7H114.13V204.7H118.13V202.7Z" fill="url(#paint9_linear_34_524)"/>
<path d="M182.13 202.7H178.13V204.7H182.13V202.7Z" fill="url(#paint10_linear_34_524)"/>
<path d="M190.13 202.7H186.13V204.7H190.13V202.7Z" fill="url(#paint11_linear_34_524)"/>
<path d="M198.13 202.7H194.13V204.7H198.13V202.7Z" fill="url(#paint12_linear_34_524)"/>
<path d="M174.13 202.7H170.13V204.7H174.13V202.7Z" fill="url(#paint13_linear_34_524)"/>
<path d="M134.13 202.7H130.13V204.7H134.13V202.7Z" fill="url(#paint14_linear_34_524)"/>
<path d="M126.13 202.7H122.13V204.7H126.13V202.7Z" fill="url(#paint15_linear_34_524)"/>
<path d="M142.13 202.7H138.13V204.7H142.13V202.7Z" fill="url(#paint16_linear_34_524)"/>
<path d="M158.13 202.7H154.13V204.7H158.13V202.7Z" fill="url(#paint17_linear_34_524)"/>
<path d="M52.8601 76.8401H50.8601V80.8401H52.8601V76.8401Z" fill="url(#paint18_linear_34_524)"/>
<path d="M52.8601 68.8401H50.8601V72.8401H52.8601V68.8401Z" fill="url(#paint19_linear_34_524)"/>
<path d="M52.8601 52.8501H51.8601V51.8501H50.8601V56.8401H52.8601V52.8501Z" fill="url(#paint20_linear_34_524)"/>
<path d="M52.8601 60.8401H50.8601V64.8401H52.8601V60.8401Z" fill="url(#paint21_linear_34_524)"/>
<path d="M75.8701 51.8601H71.8701V53.8601H75.8701V51.8601Z" fill="url(#paint22_linear_34_524)"/>
<path d="M97.8401 51.8601H95.8701V53.8601H97.8401V51.8601Z" fill="url(#paint23_linear_34_524)"/>
<path d="M59.8701 51.8601H55.8701V53.8601H59.8701V51.8601Z" fill="url(#paint24_linear_34_524)"/>
<path d="M91.8701 51.8601H87.8701V53.8601H91.8701V51.8601Z" fill="url(#paint25_linear_34_524)"/>
<path d="M83.8701 51.8601H79.8701V53.8601H83.8701V51.8601Z" fill="url(#paint26_linear_34_524)"/>
<path d="M67.8701 51.8601H63.8701V53.8601H67.8701V51.8601Z" fill="url(#paint27_linear_34_524)"/>
<path d="M52.8601 140.84H50.8601V144.84H52.8601V140.84Z" fill="url(#paint28_linear_34_524)"/>
<path d="M52.8601 116.84H50.8601V120.84H52.8601V116.84Z" fill="url(#paint29_linear_34_524)"/>
<path d="M52.8601 124.84H50.8601V128.84H52.8601V124.84Z" fill="url(#paint30_linear_34_524)"/>
<path d="M52.8601 108.84H50.8601V112.84H52.8601V108.84Z" fill="url(#paint31_linear_34_524)"/>
<path d="M52.8601 92.8401H50.8601V96.8401H52.8601V92.8401Z" fill="url(#paint32_linear_34_524)"/>
<path d="M52.8601 84.8401H50.8601V88.8401H52.8601V84.8401Z" fill="url(#paint33_linear_34_524)"/>
<path d="M50.8601 104.84H52.8601V104.71H102.86V53.86H147.3C147.575 67.4298 153.154 80.3522 162.843 89.8574C172.531 99.3627 185.557 104.694 199.13 104.71C212.878 104.694 226.058 99.2266 235.78 89.5065C245.501 79.7865 250.971 66.6075 250.99 52.86C250.985 39.0951 245.514 25.8957 235.78 16.1635C226.045 6.43118 212.845 0.962611 199.08 0.959961C185.508 0.991381 172.489 6.33667 162.81 15.8507C153.132 25.3647 147.564 38.2909 147.3 51.86H102.89V0.959961H0.890015V104.67H50.89L50.8601 104.84ZM199.08 2.95996C212.299 2.97584 224.972 8.23405 234.319 17.5812C243.666 26.9283 248.924 39.6011 248.94 52.8199C248.924 66.0378 243.666 78.7097 234.318 88.0552C224.971 97.4008 212.298 102.657 199.08 102.67C186.053 102.642 173.554 97.5204 164.252 88.4001C154.951 79.2798 149.585 66.8837 149.3 53.86H199.13V51.86H149.3C149.564 38.8213 154.921 26.4038 164.224 17.2648C173.528 8.12582 186.039 2.99126 199.08 2.95996V2.95996ZM2.87 102.67V2.95996H100.87V102.67H52.87V100.8H50.87V102.67H2.87Z" fill="url(#paint34_linear_34_524)"/>
<path d="M52.8601 132.84H50.8601V136.84H52.8601V132.84Z" fill="url(#paint35_linear_34_524)"/>
<path d="M215.67 45.89C215.12 44.5888 214.418 43.3571 213.58 42.22L211.97 43.4C212.713 44.4135 213.334 45.5111 213.82 46.67L215.67 45.89Z" fill="url(#paint36_linear_34_524)"/>
<path d="M215.11 61.0201L213.33 60.1101C212.759 61.229 212.057 62.2763 211.24 63.2301L212.76 64.5301C213.677 63.455 214.465 62.2771 215.11 61.0201Z" fill="url(#paint37_linear_34_524)"/>
<path d="M210.7 39.13C209.623 38.2173 208.441 37.4352 207.18 36.8L206.28 38.58C207.4 39.151 208.45 39.8489 209.41 40.66L210.7 39.13Z" fill="url(#paint38_linear_34_524)"/>
<path d="M183.15 54.1499L181.15 54.3099C181.259 55.7182 181.538 57.1082 181.98 58.4499L183.88 57.8299C183.491 56.6365 183.246 55.4012 183.15 54.1499V54.1499Z" fill="url(#paint39_linear_34_524)"/>
<path d="M183.77 62.29C184.511 63.4918 185.39 64.6027 186.39 65.6L187.8 64.1799C186.911 63.2947 186.129 62.308 185.47 61.24L183.77 62.29Z" fill="url(#paint40_linear_34_524)"/>
<path d="M189.71 68.21C190.916 68.9473 192.205 69.5381 193.55 69.97L194.16 68.07C192.964 67.6869 191.819 67.1597 190.75 66.5L189.71 68.21Z" fill="url(#paint41_linear_34_524)"/>
<path d="M197.85 68.7901L197.69 70.7901C198.15 70.7901 198.61 70.7901 199.08 70.7901C200.028 70.7874 200.974 70.7139 201.91 70.5701L201.6 68.5701C200.363 68.7932 199.104 68.8671 197.85 68.7901V68.7901Z" fill="url(#paint42_linear_34_524)"/>
<path d="M215.06 52.86C215.063 54.1158 214.918 55.3676 214.63 56.59L216.57 57.05C216.899 55.6777 217.064 54.2711 217.06 52.86C217.064 51.8886 216.987 50.9185 216.83 49.96L214.83 50.28C214.972 51.1328 215.049 51.9954 215.06 52.86V52.86Z" fill="url(#paint43_linear_34_524)"/>
<path d="M190.86 36.8601L191.78 38.6401C192.892 38.0614 194.071 37.6214 195.29 37.3301L194.82 35.3301C193.445 35.6836 192.116 36.1971 190.86 36.8601V36.8601Z" fill="url(#paint44_linear_34_524)"/>
<path d="M202.75 37.3001L203.21 35.3001C201.857 34.9793 200.471 34.8182 199.08 34.8201H199.02L199.08 36.8201C200.318 36.8383 201.549 36.9994 202.75 37.3001V37.3001Z" fill="url(#paint45_linear_34_524)"/>
<path d="M184.5 42.33L186.12 43.4999C186.857 42.4817 187.709 41.5522 188.66 40.73L187.36 39.22C186.29 40.143 185.33 41.1866 184.5 42.33V42.33Z" fill="url(#paint46_linear_34_524)"/>
<path d="M181.3 50.09L183.3 50.4C183.492 49.1587 183.828 47.9438 184.3 46.78L182.45 46.02C181.906 47.3262 181.52 48.6925 181.3 50.09V50.09Z" fill="url(#paint47_linear_34_524)"/>
<path d="M209.66 67.4L208.48 65.78C207.468 66.522 206.37 67.1397 205.21 67.62L205.98 69.47C207.284 68.9268 208.519 68.232 209.66 67.4Z" fill="url(#paint48_linear_34_524)"/>
<path d="M148.96 202.7H146.13V204.7H148.96V255.55H250.96V151.84H148.96V202.7ZM150.96 153.84H248.96V253.55H150.96V153.84Z" fill="url(#paint49_linear_34_524)"/>
<path d="M52.8601 151.87V148.87H50.8601V151.87C37.2893 152.145 24.3659 157.724 14.859 167.412C5.35215 177.1 0.0181418 190.127 0 203.7C0.0185256 217.448 5.48866 230.627 15.2106 240.347C24.9325 250.067 38.1126 255.534 51.8601 255.55C65.6067 255.534 78.7857 250.066 88.506 240.346C98.2263 230.626 103.694 217.447 103.71 203.7C103.695 190.128 98.3628 177.101 88.8575 167.413C79.3523 157.724 66.4299 152.145 52.8601 151.87V151.87ZM51.8601 253.55C38.6422 253.537 25.9692 248.281 16.6218 238.935C7.27442 229.59 2.01588 216.918 2 203.7C2.01588 190.481 7.27409 177.808 16.6212 168.461C25.9683 159.114 38.6413 153.856 51.8601 153.84C64.9033 153.858 77.4211 158.981 86.7343 168.113C96.0474 177.245 101.416 189.66 101.69 202.7H98.13V204.7H101.69C101.416 217.74 96.047 230.153 86.7336 239.283C77.4202 248.414 64.9024 253.535 51.8601 253.55Z" fill="url(#paint50_linear_34_524)"/>
<defs>
<linearGradient id="paint0_linear_34_524" x1="86.1301" y1="202.7" x2="82.1301" y2="204.7" gradientUnits="userSpaceOnUse">
<stop stop-color="#62F9BB"/>
<stop offset="1" stop-color="#776AF6"/>
</linearGradient>
<linearGradient id="paint1_linear_34_524" x1="94.1301" y1="202.7" x2="90.1301" y2="204.7" gradientUnits="userSpaceOnUse">
<stop stop-color="#62F9BB"/>
<stop offset="1" stop-color="#776AF6"/>
</linearGradient>
<linearGradient id="paint2_linear_34_524" x1="59.1201" y1="188.79" x2="36.5154" y2="192.301" gradientUnits="userSpaceOnUse">
<stop stop-color="#62F9BB"/>
<stop offset="1" stop-color="#776AF6"/>
</linearGradient>
<linearGradient id="paint3_linear_34_524" x1="54.1301" y1="202.7" x2="50.1301" y2="204.7" gradientUnits="userSpaceOnUse">
<stop stop-color="#62F9BB"/>
<stop offset="1" stop-color="#776AF6"/>
</linearGradient>
<linearGradient id="paint4_linear_34_524" x1="78.1301" y1="202.7" x2="74.1301" y2="204.7" gradientUnits="userSpaceOnUse">
<stop stop-color="#62F9BB"/>
<stop offset="1" stop-color="#776AF6"/>
</linearGradient>
<linearGradient id="paint5_linear_34_524" x1="110.13" y1="202.7" x2="106.13" y2="204.7" gradientUnits="userSpaceOnUse">
<stop stop-color="#62F9BB"/>
<stop offset="1" stop-color="#776AF6"/>
</linearGradient>
<linearGradient id="paint6_linear_34_524" x1="70.1301" y1="202.7" x2="66.1301" y2="204.7" gradientUnits="userSpaceOnUse">
<stop stop-color="#62F9BB"/>
<stop offset="1" stop-color="#776AF6"/>
</linearGradient>
<linearGradient id="paint7_linear_34_524" x1="62.1301" y1="202.7" x2="58.1301" y2="204.7" gradientUnits="userSpaceOnUse">
<stop stop-color="#62F9BB"/>
<stop offset="1" stop-color="#776AF6"/>
</linearGradient>
<linearGradient id="paint8_linear_34_524" x1="166.13" y1="202.7" x2="162.13" y2="204.7" gradientUnits="userSpaceOnUse">
<stop stop-color="#62F9BB"/>
<stop offset="1" stop-color="#776AF6"/>
</linearGradient>
<linearGradient id="paint9_linear_34_524" x1="118.13" y1="202.7" x2="114.13" y2="204.7" gradientUnits="userSpaceOnUse">
<stop stop-color="#62F9BB"/>
<stop offset="1" stop-color="#776AF6"/>
</linearGradient>
<linearGradient id="paint10_linear_34_524" x1="182.13" y1="202.7" x2="178.13" y2="204.7" gradientUnits="userSpaceOnUse">
<stop stop-color="#62F9BB"/>
<stop offset="1" stop-color="#776AF6"/>
</linearGradient>
<linearGradient id="paint11_linear_34_524" x1="190.13" y1="202.7" x2="186.13" y2="204.7" gradientUnits="userSpaceOnUse">
<stop stop-color="#62F9BB"/>
<stop offset="1" stop-color="#776AF6"/>
</linearGradient>
<linearGradient id="paint12_linear_34_524" x1="198.13" y1="202.7" x2="194.13" y2="204.7" gradientUnits="userSpaceOnUse">
<stop stop-color="#62F9BB"/>
<stop offset="1" stop-color="#776AF6"/>
</linearGradient>
<linearGradient id="paint13_linear_34_524" x1="174.13" y1="202.7" x2="170.13" y2="204.7" gradientUnits="userSpaceOnUse">
<stop stop-color="#62F9BB"/>
<stop offset="1" stop-color="#776AF6"/>
</linearGradient>
<linearGradient id="paint14_linear_34_524" x1="134.13" y1="202.7" x2="130.13" y2="204.7" gradientUnits="userSpaceOnUse">
<stop stop-color="#62F9BB"/>
<stop offset="1" stop-color="#776AF6"/>
</linearGradient>
<linearGradient id="paint15_linear_34_524" x1="126.13" y1="202.7" x2="122.13" y2="204.7" gradientUnits="userSpaceOnUse">
<stop stop-color="#62F9BB"/>
<stop offset="1" stop-color="#776AF6"/>
</linearGradient>
<linearGradient id="paint16_linear_34_524" x1="142.13" y1="202.7" x2="138.13" y2="204.7" gradientUnits="userSpaceOnUse">
<stop stop-color="#62F9BB"/>
<stop offset="1" stop-color="#776AF6"/>
</linearGradient>
<linearGradient id="paint17_linear_34_524" x1="158.13" y1="202.7" x2="154.13" y2="204.7" gradientUnits="userSpaceOnUse">
<stop stop-color="#62F9BB"/>
<stop offset="1" stop-color="#776AF6"/>
</linearGradient>
<linearGradient id="paint18_linear_34_524" x1="52.8601" y1="76.8401" x2="50.3986" y2="77.1478" gradientUnits="userSpaceOnUse">
<stop stop-color="#62F9BB"/>
<stop offset="1" stop-color="#776AF6"/>
</linearGradient>
<linearGradient id="paint19_linear_34_524" x1="52.8601" y1="68.8401" x2="50.3986" y2="69.1478" gradientUnits="userSpaceOnUse">
<stop stop-color="#62F9BB"/>
<stop offset="1" stop-color="#776AF6"/>
</linearGradient>
<linearGradient id="paint20_linear_34_524" x1="52.8601" y1="51.8501" x2="50.385" y2="52.0981" gradientUnits="userSpaceOnUse">
<stop stop-color="#62F9BB"/>
<stop offset="1" stop-color="#776AF6"/>
</linearGradient>
<linearGradient id="paint21_linear_34_524" x1="52.8601" y1="60.8401" x2="50.3986" y2="61.1478" gradientUnits="userSpaceOnUse">
<stop stop-color="#62F9BB"/>
<stop offset="1" stop-color="#776AF6"/>
</linearGradient>
<linearGradient id="paint22_linear_34_524" x1="75.8701" y1="51.8601" x2="71.8701" y2="53.8601" gradientUnits="userSpaceOnUse">
<stop stop-color="#62F9BB"/>
<stop offset="1" stop-color="#776AF6"/>
</linearGradient>
<linearGradient id="paint23_linear_34_524" x1="97.8401" y1="51.8601" x2="95.5184" y2="52.4318" gradientUnits="userSpaceOnUse">
<stop stop-color="#62F9BB"/>
<stop offset="1" stop-color="#776AF6"/>
</linearGradient>
<linearGradient id="paint24_linear_34_524" x1="59.8701" y1="51.8601" x2="55.8701" y2="53.8601" gradientUnits="userSpaceOnUse">
<stop stop-color="#62F9BB"/>
<stop offset="1" stop-color="#776AF6"/>
</linearGradient>
<linearGradient id="paint25_linear_34_524" x1="91.8701" y1="51.8601" x2="87.8701" y2="53.8601" gradientUnits="userSpaceOnUse">
<stop stop-color="#62F9BB"/>
<stop offset="1" stop-color="#776AF6"/>
</linearGradient>
<linearGradient id="paint26_linear_34_524" x1="83.8701" y1="51.8601" x2="79.8701" y2="53.8601" gradientUnits="userSpaceOnUse">
<stop stop-color="#62F9BB"/>
<stop offset="1" stop-color="#776AF6"/>
</linearGradient>
<linearGradient id="paint27_linear_34_524" x1="67.8701" y1="51.8601" x2="63.8701" y2="53.8601" gradientUnits="userSpaceOnUse">
<stop stop-color="#62F9BB"/>
<stop offset="1" stop-color="#776AF6"/>
</linearGradient>
<linearGradient id="paint28_linear_34_524" x1="52.8601" y1="140.84" x2="50.3986" y2="141.148" gradientUnits="userSpaceOnUse">
<stop stop-color="#62F9BB"/>
<stop offset="1" stop-color="#776AF6"/>
</linearGradient>
<linearGradient id="paint29_linear_34_524" x1="52.8601" y1="116.84" x2="50.3986" y2="117.148" gradientUnits="userSpaceOnUse">
<stop stop-color="#62F9BB"/>
<stop offset="1" stop-color="#776AF6"/>
</linearGradient>
<linearGradient id="paint30_linear_34_524" x1="52.8601" y1="124.84" x2="50.3986" y2="125.148" gradientUnits="userSpaceOnUse">
<stop stop-color="#62F9BB"/>
<stop offset="1" stop-color="#776AF6"/>
</linearGradient>
<linearGradient id="paint31_linear_34_524" x1="52.8601" y1="108.84" x2="50.3986" y2="109.148" gradientUnits="userSpaceOnUse">
<stop stop-color="#62F9BB"/>
<stop offset="1" stop-color="#776AF6"/>
</linearGradient>
<linearGradient id="paint32_linear_34_524" x1="52.8601" y1="92.8401" x2="50.3986" y2="93.1478" gradientUnits="userSpaceOnUse">
<stop stop-color="#62F9BB"/>
<stop offset="1" stop-color="#776AF6"/>
</linearGradient>
<linearGradient id="paint33_linear_34_524" x1="52.8601" y1="84.8401" x2="50.3986" y2="85.1478" gradientUnits="userSpaceOnUse">
<stop stop-color="#62F9BB"/>
<stop offset="1" stop-color="#776AF6"/>
</linearGradient>
<linearGradient id="paint34_linear_34_524" x1="250.99" y1="0.959961" x2="21.5033" y2="139.087" gradientUnits="userSpaceOnUse">
<stop stop-color="#62F9BB"/>
<stop offset="1" stop-color="#776AF6"/>
</linearGradient>
<linearGradient id="paint35_linear_34_524" x1="52.8601" y1="132.84" x2="50.3986" y2="133.148" gradientUnits="userSpaceOnUse">
<stop stop-color="#62F9BB"/>
<stop offset="1" stop-color="#776AF6"/>
</linearGradient>
<linearGradient id="paint36_linear_34_524" x1="215.67" y1="42.22" x2="211.237" y2="43.1415" gradientUnits="userSpaceOnUse">
<stop stop-color="#62F9BB"/>
<stop offset="1" stop-color="#776AF6"/>
</linearGradient>
<linearGradient id="paint37_linear_34_524" x1="215.11" y1="60.1101" x2="210.494" y2="61.1206" gradientUnits="userSpaceOnUse">
<stop stop-color="#62F9BB"/>
<stop offset="1" stop-color="#776AF6"/>
</linearGradient>
<linearGradient id="paint38_linear_34_524" x1="210.7" y1="36.8" x2="205.594" y2="38.2619" gradientUnits="userSpaceOnUse">
<stop stop-color="#62F9BB"/>
<stop offset="1" stop-color="#776AF6"/>
</linearGradient>
<linearGradient id="paint39_linear_34_524" x1="183.88" y1="54.1499" x2="180.551" y2="54.6782" gradientUnits="userSpaceOnUse">
<stop stop-color="#62F9BB"/>
<stop offset="1" stop-color="#776AF6"/>
</linearGradient>
<linearGradient id="paint40_linear_34_524" x1="187.8" y1="61.24" x2="183.018" y2="62.3451" gradientUnits="userSpaceOnUse">
<stop stop-color="#62F9BB"/>
<stop offset="1" stop-color="#776AF6"/>
</linearGradient>
<linearGradient id="paint41_linear_34_524" x1="194.16" y1="66.5" x2="189.116" y2="68.1171" gradientUnits="userSpaceOnUse">
<stop stop-color="#62F9BB"/>
<stop offset="1" stop-color="#776AF6"/>
</linearGradient>
<linearGradient id="paint42_linear_34_524" x1="201.91" y1="68.5701" x2="197.607" y2="70.615" gradientUnits="userSpaceOnUse">
<stop stop-color="#62F9BB"/>
<stop offset="1" stop-color="#776AF6"/>
</linearGradient>
<linearGradient id="paint43_linear_34_524" x1="217.06" y1="49.96" x2="214.045" y2="50.2184" gradientUnits="userSpaceOnUse">
<stop stop-color="#62F9BB"/>
<stop offset="1" stop-color="#776AF6"/>
</linearGradient>
<linearGradient id="paint44_linear_34_524" x1="195.29" y1="35.3301" x2="190.31" y2="36.9963" gradientUnits="userSpaceOnUse">
<stop stop-color="#62F9BB"/>
<stop offset="1" stop-color="#776AF6"/>
</linearGradient>
<linearGradient id="paint45_linear_34_524" x1="203.21" y1="34.8201" x2="198.765" y2="36.6974" gradientUnits="userSpaceOnUse">
<stop stop-color="#62F9BB"/>
<stop offset="1" stop-color="#776AF6"/>
</linearGradient>
<linearGradient id="paint46_linear_34_524" x1="188.66" y1="39.22" x2="183.75" y2="40.4131" gradientUnits="userSpaceOnUse">
<stop stop-color="#62F9BB"/>
<stop offset="1" stop-color="#776AF6"/>
</linearGradient>
<linearGradient id="paint47_linear_34_524" x1="184.3" y1="46.02" x2="180.657" y2="46.6439" gradientUnits="userSpaceOnUse">
<stop stop-color="#62F9BB"/>
<stop offset="1" stop-color="#776AF6"/>
</linearGradient>
<linearGradient id="paint48_linear_34_524" x1="209.66" y1="65.78" x2="204.561" y2="67.3173" gradientUnits="userSpaceOnUse">
<stop stop-color="#62F9BB"/>
<stop offset="1" stop-color="#776AF6"/>
</linearGradient>
<linearGradient id="paint49_linear_34_524" x1="250.96" y1="151.84" x2="127.788" y2="182.965" gradientUnits="userSpaceOnUse">
<stop stop-color="#62F9BB"/>
<stop offset="1" stop-color="#776AF6"/>
</linearGradient>
<linearGradient id="paint50_linear_34_524" x1="103.71" y1="148.87" x2="-18.6971" y2="178.62" gradientUnits="userSpaceOnUse">
<stop stop-color="#62F9BB"/>
<stop offset="1" stop-color="#776AF6"/>
</linearGradient>
</defs>
</svg>
