<svg width="99" height="35" viewBox="0 0 99 35" fill="none" xmlns="http://www.w3.org/2000/svg">
<g clip-path="url(#clip0_2_502)">
<path d="M0.277344 3.6936H3.42051V15.5365H0.277344V3.6936Z" fill="#776AF6"/>
<path d="M5.10742 9.62604C5.10742 5.93255 7.21027 3.36971 10.1678 3.36971C11.8315 3.36971 12.8718 4.13216 13.5188 5.1244H13.588V0H16.7312V15.5364H13.7043V13.9893H13.6573C12.9646 15.1212 11.7858 15.8837 10.1221 15.8837C7.14099 15.8837 5.10742 13.4592 5.10742 9.62604ZM13.6573 9.69521C13.6573 7.43394 12.9176 5.90903 10.9128 5.90903C9.17982 5.90903 8.29896 7.43397 8.29896 9.62604C8.29896 11.9121 9.19942 13.2516 10.8174 13.2516C12.6876 13.2516 13.6573 11.8703 13.6573 9.69521Z" fill="#776AF6"/>
<path d="M18.417 9.60377C18.417 6.09437 20.7968 3.36963 24.2641 3.36963C28.0777 3.36963 30.1112 6.27972 30.1112 10.5033H21.5143C21.7444 12.3311 22.7625 13.4591 24.5412 13.4591C25.7657 13.4591 26.4832 12.9042 26.8295 12.0047H29.9257C29.4865 14.1054 27.6151 15.8836 24.5673 15.8836C20.6361 15.8836 18.417 13.1354 18.417 9.60377ZM21.5536 8.33345H26.823C26.7302 6.83334 25.737 5.79407 24.3033 5.79407C22.6462 5.79407 21.8372 6.78633 21.5601 8.33345H21.5536Z" fill="#776AF6"/>
<path d="M38.8913 14.2203H38.8456C38.2444 15.1211 37.3897 15.8131 35.3561 15.8131C32.9292 15.8131 31.2197 14.544 31.2197 12.1888C31.2197 9.57762 33.3448 8.74858 35.9795 8.38041C37.9399 8.10232 38.8456 7.9417 38.8456 7.04085C38.8456 6.187 38.1751 5.63219 36.8578 5.63219C35.3797 5.63219 34.6622 6.16356 34.5707 7.29419H31.7738C31.8666 5.21701 33.4153 3.39307 36.8813 3.39307C40.44 3.39307 41.8724 4.98593 41.8724 7.75637V13.7816C41.8724 14.6825 42.0122 15.2178 42.2892 15.4214V15.5363H39.2611C39.0769 15.3052 38.9605 14.7516 38.8913 14.2203ZM38.9148 11.3584V9.58023C38.3607 9.90402 37.5047 10.0881 36.7192 10.2735C35.0791 10.643 34.27 11.0112 34.27 12.1196C34.27 13.228 35.0097 13.621 36.1193 13.621C37.9215 13.621 38.9174 12.5126 38.9174 11.3584H38.9148Z" fill="#776AF6"/>
<path d="M43.166 3.69349H44.8075V0H47.8801V3.69349H49.9149V5.77063H47.8801V12.0505C47.8801 12.9278 48.3662 13.2255 49.0563 13.2255C49.4484 13.2255 49.9816 13.202 49.9816 13.202V15.5116C49.9816 15.5116 49.2641 15.5573 48.0212 15.5573C46.4961 15.5573 44.8101 14.9567 44.8101 12.7177V5.76801H43.1686L43.166 3.69349Z" fill="#776AF6"/>
<path d="M54.9049 3.6936H51.7617V15.5365H54.9049V3.6936Z" fill="#776AF6"/>
<path d="M56.5918 9.62596C56.5918 6.09436 59.1102 3.36963 62.7852 3.36963C66.4603 3.36963 68.9787 6.09436 68.9787 9.62596C68.9787 13.1576 66.4603 15.8836 62.7852 15.8836C59.1102 15.8836 56.5918 13.1589 56.5918 9.62596ZM65.7898 9.62596C65.7898 7.31769 64.7038 5.74836 62.7839 5.74836C60.8432 5.74836 59.778 7.31508 59.778 9.62596C59.778 11.9368 60.8419 13.4826 62.7839 13.4826C64.7038 13.4826 65.7898 11.9355 65.7898 9.62596Z" fill="#776AF6"/>
<path d="M73.7386 5.3097H73.8079C74.6168 4.03937 75.7029 3.36963 77.3208 3.36963C79.77 3.36963 81.4102 5.21699 81.4102 7.80204V15.5363H78.2736V8.26422C78.2736 6.99519 77.5338 6.09433 76.2165 6.09433C74.8298 6.09433 73.813 7.20278 73.813 8.81909V15.5363H70.6699V3.69341H73.7438L73.7386 5.3097Z" fill="#776AF6"/>
<path d="M51.7617 0H54.9049L51.7617 3.69349V0Z" fill="#776AF6"/>
<path d="M0.277344 0H3.42047L0.277344 3.69349V0Z" fill="#776AF6"/>
<path d="M0 28.7437C0 25.2108 2.31063 22.4873 5.9164 22.4873C8.99026 22.4873 10.8826 24.2642 11.3008 26.8271H8.22698C8.01919 25.7826 7.21019 24.9993 6.05488 24.9993C4.15985 24.9993 3.18886 26.4537 3.18886 28.7397C3.18886 30.9788 4.09064 32.479 6.00919 32.479C7.27951 32.479 8.18127 31.8105 8.38907 30.471H11.4158C11.208 32.9868 9.24377 34.9961 6.07843 34.9961C2.33412 35 0 32.2753 0 28.7437Z" fill="#776AF6"/>
<path d="M12.4326 28.7437C12.4326 25.2108 14.9511 22.4873 18.6261 22.4873C22.3011 22.4873 24.8195 25.2108 24.8195 28.7437C24.8195 32.2766 22.2998 35 18.6261 35C14.9524 35 12.4326 32.2753 12.4326 28.7437ZM21.6307 28.7437C21.6307 26.4341 20.5446 24.8648 18.6248 24.8648C16.6827 24.8648 15.6189 26.4315 15.6189 28.7437C15.6189 31.0559 16.6814 32.5991 18.6248 32.5991C20.5446 32.5991 21.6307 31.052 21.6307 28.7437Z" fill="#776AF6"/>
<path d="M26.5508 19.1162H29.694V34.6526H26.5508V19.1162Z" fill="#776AF6"/>
<path d="M32.0518 19.1162H35.1883V34.6526H32.0518V19.1162Z" fill="#776AF6"/>
<path d="M36.9268 28.7202C36.9268 25.2108 39.3079 22.4873 42.7739 22.4873C46.5874 22.4873 48.621 25.3962 48.621 29.621H40.0242C40.2555 31.4488 41.2722 32.5755 43.0509 32.5755C44.2768 32.5755 44.993 32.022 45.3394 31.1212H48.4354C47.9963 33.2218 46.1248 35 43.0771 35C39.1459 35 36.9268 32.2531 36.9268 28.7202ZM40.0634 27.4511H45.3328C45.24 25.9497 44.2468 24.9105 42.8144 24.9105C41.1559 24.9105 40.3469 25.904 40.0699 27.4511H40.0634Z" fill="#776AF6"/>
<path d="M49.7295 28.7437C49.7295 25.2108 52.0401 22.4873 55.6459 22.4873C58.7185 22.4873 60.6122 24.2642 61.0304 26.8271H57.9565C57.7487 25.7826 56.9398 24.9993 55.7844 24.9993C53.8894 24.9993 52.9184 26.4537 52.9184 28.7397C52.9184 30.9788 53.8202 32.479 55.7374 32.479C57.009 32.479 57.9108 31.8105 58.1186 30.471H61.1454C60.9376 32.9868 58.9733 34.9961 55.8066 34.9961C52.0636 35 49.7295 32.2753 49.7295 28.7437Z" fill="#776AF6"/>
<path d="M62.0498 22.8097H63.6913V19.1162H66.7547V22.8097H68.7895V24.8882H66.7547V31.168C66.7547 32.0454 67.2409 32.3431 67.9309 32.3431C68.323 32.3431 68.8562 32.3209 68.8562 32.3209V34.6291C68.8562 34.6291 68.1387 34.6748 66.8958 34.6748C65.3707 34.6748 63.6834 34.0755 63.6834 31.8352V24.8869H62.0498V22.8097Z" fill="#776AF6"/>
<path d="M70.6416 19.1162H73.7847L70.6416 22.811V19.1162Z" fill="#776AF6"/>
<path d="M73.7857 22.811H70.6426V34.654H73.7857V22.811Z" fill="#776AF6"/>
<path d="M75.0801 22.8098H78.2689L80.164 28.946C80.5103 30.0767 80.6946 30.8391 80.6946 30.8391H80.7416C80.7416 30.8391 80.9037 30.0767 81.25 28.946L83.1907 22.8098H86.3339L82.1975 34.654H79.1916L75.0801 22.8098Z" fill="#776AF6"/>
<path d="M86.7021 28.7202C86.7021 25.2108 89.0834 22.4873 92.5493 22.4873C96.3629 22.4873 98.3964 25.3962 98.3964 29.621H89.7996C90.0309 31.4488 91.0477 32.5755 92.8264 32.5755C94.0523 32.5755 94.7684 32.022 95.1148 31.1212H98.2122C97.7718 33.2218 95.9003 35 92.8538 35C88.9213 35 86.7021 32.2531 86.7021 28.7202ZM89.8453 27.4511H95.1148C95.022 25.9497 94.0287 24.9105 92.5963 24.9105C90.9326 24.9105 90.1237 25.904 89.8453 27.4511Z" fill="#776AF6"/>
</g>
<defs>
<clipPath id="clip0_2_502">
<rect width="98.3962" height="35" fill="white"/>
</clipPath>
</defs>
</svg>
