<svg width="99" height="35" viewBox="0 0 99 35" fill="none" xmlns="http://www.w3.org/2000/svg">
<path fill-rule="evenodd" clip-rule="evenodd" d="M0.276982 0H3.42011L0.276982 3.69349V0ZM54.9047 0H51.7615V3.69349V15.5364H54.9047V3.69349L51.7615 3.69349L54.9047 0ZM5.10737 9.62607C5.10737 5.93258 7.21022 3.36974 10.1678 3.36974C11.8315 3.36974 12.8718 4.13219 13.5187 5.12443H13.5879V2.54278e-05H16.7311V15.5364H13.7043V13.9893H13.6572C12.9646 15.1212 11.7857 15.8837 10.122 15.8837C7.14094 15.8837 5.10737 13.4593 5.10737 9.62607ZM13.6572 9.69523C13.6572 7.43397 12.9175 5.90905 10.9127 5.90905C9.17976 5.90905 8.2989 7.434 8.2989 9.62607C8.2989 11.9121 9.19937 13.2517 10.8173 13.2517C12.6875 13.2517 13.6572 11.8703 13.6572 9.69523ZM0.276998 3.6935H3.42016V15.5364H0.276998V3.6935ZM24.2641 3.36973C20.7969 3.36973 18.417 6.09447 18.417 9.60387C18.417 13.1355 20.6362 15.8837 24.5674 15.8837C27.6151 15.8837 29.4866 14.1055 29.9257 12.0048H26.8296C26.4832 12.9043 25.7658 13.4592 24.5412 13.4592C22.7625 13.4592 21.7444 12.3312 21.5144 10.5034H30.1113C30.1113 6.27982 28.0777 3.36973 24.2641 3.36973ZM26.8231 8.33354H21.5601C21.8372 6.78643 22.6462 5.79417 24.3034 5.79417C25.737 5.79417 26.7303 6.83343 26.8231 8.33354ZM38.8911 14.2204H38.8454C38.2442 15.1212 37.3895 15.8132 35.3559 15.8132C32.929 15.8132 31.2195 14.5442 31.2195 12.1889C31.2195 9.57773 33.3446 8.74869 35.9793 8.38052C37.9397 8.10243 38.8454 7.94181 38.8454 7.04096C38.8454 6.18711 38.1749 5.6323 36.8576 5.6323C35.3794 5.6323 34.6619 6.16367 34.5705 7.2943H31.7736C31.8664 5.21712 33.4151 3.39318 36.8811 3.39318C40.4398 3.39318 41.8721 4.98604 41.8721 7.75648V13.7817C41.8721 14.6826 42.012 15.2179 42.289 15.4215V15.5364H39.2609C39.0767 15.3053 38.9603 14.7518 38.8911 14.2204ZM38.9146 11.3586V9.58034C38.4038 9.87884 37.6363 10.0586 36.9042 10.2301L36.719 10.2736C35.0788 10.6431 34.2698 11.0113 34.2698 12.1197C34.2698 13.2282 35.0095 13.6211 36.1191 13.6211C37.9213 13.6211 38.9172 12.5127 38.9172 11.3586H38.9146ZM44.8075 3.69352H43.166L43.1686 5.76804H44.8101V12.7177C44.8101 14.9568 46.4961 15.5573 48.0212 15.5573C49.2641 15.5573 49.9816 15.5116 49.9816 15.5116V13.2021C49.9816 13.2021 49.4483 13.2255 49.0563 13.2255C48.3662 13.2255 47.8801 12.9279 47.8801 12.0505V5.77065H49.9149V3.69352H47.8801V2.54278e-05H44.8075V3.69352ZM62.7854 3.36973C59.1103 3.36973 56.592 6.09446 56.592 9.62606C56.592 13.159 59.1103 15.8837 62.7854 15.8837C66.4604 15.8837 68.9789 13.1576 68.9789 9.62606C68.9789 6.09446 66.4604 3.36973 62.7854 3.36973ZM62.7841 5.74846C64.704 5.74846 65.79 7.31779 65.79 9.62606C65.79 11.9356 64.704 13.4827 62.7841 13.4827C60.842 13.4827 59.7782 11.9369 59.7782 9.62606C59.7782 7.31518 60.8433 5.74846 62.7841 5.74846ZM73.7386 5.3098H73.8079C74.6169 4.03947 75.7029 3.36973 77.3209 3.36973C79.77 3.36973 81.4102 5.21708 81.4102 7.80213V15.5364H78.2736V8.26431C78.2736 6.99529 77.5339 6.09443 76.2165 6.09443C74.8299 6.09443 73.8131 7.20288 73.8131 8.81919V15.5364H70.67V3.69351H73.7439L73.7386 5.3098ZM5.9164 22.4873C2.31062 22.4873 -3.40391e-06 25.2107 -3.40391e-06 28.7436C-3.40391e-06 32.2752 2.33411 34.9999 6.07842 34.996C9.24377 34.996 11.208 32.9868 11.4158 30.4709H8.38907C8.18127 31.8105 7.2795 32.4789 6.00918 32.4789C4.09063 32.4789 3.18885 30.9788 3.18885 28.7397C3.18885 26.4536 4.15985 24.9992 6.05488 24.9992C7.21019 24.9992 8.01918 25.7826 8.22698 26.827H11.3008C10.8826 24.2642 8.99026 22.4873 5.9164 22.4873ZM12.4327 28.7436C12.4327 25.2107 14.9511 22.4873 18.6261 22.4873C22.3012 22.4873 24.8196 25.2107 24.8196 28.7436C24.8196 32.2766 22.2999 35 18.6261 35C14.9524 35 12.4327 32.2752 12.4327 28.7436ZM21.6307 28.7436C21.6307 26.4341 20.5447 24.8647 18.6248 24.8647C16.6827 24.8647 15.6189 26.4315 15.6189 28.7436C15.6189 31.0558 16.6814 32.599 18.6248 32.599C20.5447 32.599 21.6307 31.0519 21.6307 28.7436ZM29.6944 19.1163H26.5512V34.6527H29.6944V19.1163ZM32.0521 19.1163H35.1886V34.6527H32.0521V19.1163ZM42.7739 22.4873C39.308 22.4873 36.9268 25.2107 36.9268 28.7201C36.9268 32.253 39.146 35 43.0772 35C46.1249 35 47.9964 33.2218 48.4355 31.1211H45.3394C44.9931 32.022 44.2769 32.5755 43.051 32.5755C41.2723 32.5755 40.2556 31.4488 40.0242 29.621H48.6211C48.6211 25.3961 46.5875 22.4873 42.7739 22.4873ZM45.3329 27.4511H40.0699C40.347 25.904 41.156 24.9104 42.8144 24.9104C44.2468 24.9104 45.2401 25.9497 45.3329 27.4511ZM49.7293 28.7436C49.7293 25.2107 52.0399 22.4873 55.6457 22.4873C58.7183 22.4873 60.612 24.2642 61.0302 26.827H57.9564C57.7486 25.7826 56.9396 24.9992 55.7843 24.9992C53.8892 24.9992 52.9182 26.4536 52.9182 28.7397C52.9182 30.9788 53.82 32.4789 55.7372 32.4789C57.0089 32.4789 57.9106 31.8105 58.1184 30.4709H61.1452C60.9374 32.9868 58.9731 34.996 55.8065 34.996C52.0635 34.9999 49.7293 32.2752 49.7293 28.7436ZM63.6911 22.8098H62.0496V24.887H63.6833V31.8353C63.6833 34.0756 65.3705 34.6749 66.8957 34.6749C68.1386 34.6749 68.856 34.6292 68.856 34.6292V32.321C68.856 32.321 68.3228 32.3431 67.9307 32.3431C67.2407 32.3431 66.7545 32.0455 66.7545 31.1681V24.8883H68.7894V22.8098H66.7545V19.1163H63.6911V22.8098ZM70.6413 19.1163H73.7844L70.6413 22.8111V19.1163ZM70.6425 22.8111H73.7857V34.654H70.6425V22.8111ZM75.0795 22.8098H78.2684L80.1634 28.9461C80.5097 30.0767 80.694 30.8392 80.694 30.8392H80.7411C80.7411 30.8392 80.9031 30.0767 81.2495 28.9461L83.1902 22.8098H86.3333L82.197 34.654H79.1911L75.0795 22.8098ZM92.549 22.4873C89.0831 22.4873 86.7019 25.2107 86.7019 28.7201C86.7019 32.253 88.921 35 92.8535 35C95.9 35 97.7715 33.2218 98.2119 31.1211H95.1145C94.7682 32.022 94.052 32.5755 92.8261 32.5755C91.0474 32.5755 90.0306 31.4488 89.7993 29.621H98.3961C98.3961 25.3961 96.3626 22.4873 92.549 22.4873ZM95.1145 27.4511H89.845C90.1234 25.904 90.9324 24.9104 92.5961 24.9104C94.0284 24.9104 95.0217 25.9497 95.1145 27.4511Z" fill="white"/>
</svg>
