<svg width="148" height="40" viewBox="0 0 148 40" fill="none" xmlns="http://www.w3.org/2000/svg">
<path d="M101.188 21.933C101.188 22.7683 100.676 23.3166 99.6818 23.3166C98.6877 23.3166 98.1803 22.7683 98.1803 21.933V19.5859H98.9951V21.8868C98.982 21.9824 98.9903 22.0797 99.0194 22.1717C99.0485 22.2637 99.0978 22.348 99.1635 22.4187C99.2292 22.4893 99.3098 22.5444 99.3994 22.5801C99.4891 22.6157 99.5855 22.631 99.6818 22.6248C99.7784 22.6307 99.8752 22.6153 99.9652 22.5798C100.055 22.5442 100.136 22.4892 100.203 22.4188C100.269 22.3485 100.32 22.2643 100.35 22.1724C100.38 22.0805 100.39 21.983 100.379 21.8868V19.5859H101.188V21.933Z" fill="white"/>
<path d="M104.54 21.7944V23.2498H103.756V21.8354C103.762 21.7743 103.756 21.7124 103.736 21.654C103.717 21.5956 103.686 21.542 103.644 21.4968C103.602 21.4517 103.551 21.416 103.494 21.3922C103.438 21.3684 103.377 21.357 103.315 21.3588C103.211 21.3613 103.109 21.3903 103.019 21.4433C102.93 21.4962 102.855 21.5712 102.803 21.6612V23.2498H102.024V20.7234H102.726L102.762 21.0001C102.855 20.8885 102.973 20.8005 103.106 20.7435C103.24 20.6865 103.385 20.662 103.53 20.6721C103.675 20.6646 103.82 20.6893 103.955 20.7445C104.089 20.7997 104.21 20.8839 104.308 20.9912C104.406 21.0985 104.479 21.2262 104.522 21.3651C104.564 21.504 104.576 21.6506 104.555 21.7944" fill="white"/>
<path d="M106.169 19.924C106.175 20.0151 106.152 20.1057 106.105 20.184C106.058 20.2623 105.989 20.3247 105.906 20.3632C105.824 20.4017 105.731 20.4144 105.641 20.3998C105.551 20.3852 105.467 20.344 105.401 20.2813C105.335 20.2187 105.289 20.1376 105.269 20.0485C105.249 19.9594 105.257 19.8664 105.29 19.7815C105.324 19.6967 105.382 19.6239 105.458 19.5726C105.533 19.5212 105.622 19.4937 105.713 19.4935C105.772 19.4893 105.831 19.4973 105.887 19.5171C105.942 19.5368 105.993 19.568 106.036 19.6084C106.079 19.6489 106.113 19.6979 106.136 19.7522C106.159 19.8065 106.17 19.865 106.169 19.924ZM106.103 23.2498H105.319V20.7234H106.103V23.2498Z" fill="white"/>
<path d="M108.137 23.301H108.117L106.636 20.7183H107.512L108.127 21.9533L108.737 20.7183H109.613L108.137 23.301Z" fill="white"/>
<path d="M112.37 21.9534V22.1891H110.546C110.546 22.5119 110.777 22.7016 111.161 22.7016C111.273 22.7061 111.384 22.6854 111.487 22.6411C111.59 22.5967 111.682 22.5298 111.755 22.4453L112.268 22.8502C112.123 23.0065 111.946 23.1285 111.748 23.2074C111.55 23.2863 111.337 23.3201 111.125 23.3062C110.946 23.3194 110.766 23.2956 110.596 23.2365C110.426 23.1774 110.27 23.0842 110.138 22.9626C110.006 22.841 109.899 22.6936 109.826 22.5294C109.753 22.3653 109.714 22.1879 109.712 22.0082C109.71 21.8284 109.745 21.6502 109.814 21.4844C109.883 21.3185 109.986 21.1687 110.115 21.044C110.245 20.9194 110.399 20.8225 110.567 20.7595C110.735 20.6964 110.915 20.6685 111.094 20.6774C111.264 20.6673 111.434 20.6938 111.592 20.7549C111.751 20.8161 111.895 20.9106 112.014 21.032C112.133 21.1535 112.224 21.299 112.282 21.4588C112.34 21.6186 112.363 21.789 112.35 21.9585L112.37 21.9534ZM110.525 21.7279H111.581C111.581 21.592 111.527 21.4616 111.431 21.3655C111.335 21.2694 111.204 21.2154 111.069 21.2154C110.999 21.2112 110.929 21.2214 110.863 21.2453C110.797 21.2691 110.737 21.3062 110.686 21.3542C110.635 21.4022 110.595 21.4602 110.567 21.5244C110.539 21.5887 110.525 21.6579 110.525 21.7279Z" fill="white"/>
<path d="M114.543 21.4H114.481C114.351 21.399 114.221 21.4286 114.104 21.4864C113.986 21.5442 113.884 21.6287 113.805 21.7331V23.2704H113.026V20.7235H113.723L113.769 21.0566C113.856 20.9329 113.972 20.8329 114.107 20.7658C114.242 20.6986 114.392 20.6665 114.543 20.6723V21.4Z" fill="white"/>
<path d="M117.059 20.9489L116.767 21.4614C116.58 21.3226 116.354 21.2472 116.121 21.2461C115.896 21.2461 115.773 21.3127 115.773 21.446C115.773 21.5792 115.875 21.6253 116.254 21.7125C116.823 21.8406 117.1 22.0814 117.1 22.4555C117.1 22.968 116.654 23.2959 115.927 23.2959C115.561 23.3075 115.202 23.2015 114.902 22.9936L115.199 22.4811C115.408 22.6498 115.668 22.7404 115.937 22.7374C116.178 22.7374 116.321 22.6656 116.321 22.5221C116.321 22.3786 116.224 22.3171 115.865 22.2403C115.271 22.1019 114.999 21.9072 114.999 21.5126C114.999 21.0002 115.414 20.6824 116.126 20.6824C116.461 20.6702 116.79 20.7673 117.064 20.9592" fill="white"/>
<path d="M118.602 19.924C118.607 20.0151 118.584 20.1057 118.537 20.184C118.491 20.2623 118.421 20.3247 118.338 20.3632C118.256 20.4017 118.163 20.4144 118.073 20.3998C117.983 20.3852 117.9 20.344 117.833 20.2813C117.767 20.2187 117.721 20.1376 117.701 20.0485C117.681 19.9594 117.689 19.8664 117.722 19.7815C117.756 19.6967 117.814 19.6239 117.89 19.5726C117.965 19.5212 118.054 19.4937 118.145 19.4935C118.204 19.4893 118.263 19.4973 118.319 19.5171C118.374 19.5368 118.425 19.568 118.468 19.6084C118.511 19.6489 118.545 19.6979 118.568 19.7522C118.591 19.8065 118.602 19.865 118.602 19.924ZM118.535 23.2498H117.751V20.7234H118.535V23.2498Z" fill="white"/>
<path d="M120.344 20.7235H121.118V21.3435H120.344V22.2967C120.341 22.3454 120.349 22.3941 120.368 22.4393C120.386 22.4845 120.414 22.5252 120.449 22.5584C120.485 22.5916 120.528 22.6166 120.574 22.6316C120.62 22.6466 120.67 22.6512 120.718 22.6452C120.837 22.6496 120.955 22.6231 121.061 22.5683L121.261 23.1474C121.071 23.2504 120.858 23.3033 120.641 23.3011C120.503 23.3193 120.362 23.3068 120.228 23.2645C120.095 23.2222 119.973 23.1511 119.87 23.0562C119.767 22.9613 119.687 22.845 119.634 22.7155C119.581 22.5861 119.558 22.4466 119.565 22.3069V21.3435H119.052V20.7235H119.565V19.8831H120.344V20.7235Z" fill="white"/>
<path d="M122.347 24.3977H121.456L122.532 22.6143L121.466 20.7183H122.337L122.952 21.9584L123.567 20.7183H124.443L122.347 24.3977Z" fill="white"/>
<path d="M128.948 21.9944C128.968 22.2796 128.903 22.5645 128.759 22.8118C128.616 23.0592 128.401 23.2576 128.143 23.3813C127.885 23.505 127.596 23.5483 127.313 23.5054C127.031 23.4626 126.767 23.3356 126.558 23.1411C126.348 22.9466 126.202 22.6934 126.138 22.4147C126.074 22.1359 126.096 21.8444 126.2 21.5781C126.304 21.3117 126.486 21.0829 126.722 20.9214C126.958 20.7598 127.237 20.673 127.523 20.6723C127.705 20.6589 127.888 20.6831 128.06 20.7435C128.232 20.8039 128.39 20.899 128.523 21.0231C128.657 21.1472 128.764 21.2974 128.837 21.4645C128.91 21.6317 128.948 21.812 128.948 21.9944ZM126.898 21.9944C126.89 22.0816 126.901 22.1695 126.929 22.2525C126.956 22.3354 127.001 22.4117 127.06 22.4763C127.12 22.541 127.191 22.5926 127.272 22.6279C127.352 22.6632 127.438 22.6815 127.526 22.6815C127.613 22.6815 127.7 22.6632 127.78 22.6279C127.86 22.5926 127.932 22.541 127.991 22.4763C128.05 22.4117 128.095 22.3354 128.123 22.2525C128.151 22.1695 128.161 22.0816 128.154 21.9944C128.161 21.9072 128.151 21.8193 128.123 21.7363C128.095 21.6534 128.05 21.5771 127.991 21.5125C127.932 21.4478 127.86 21.3962 127.78 21.3609C127.7 21.3256 127.613 21.3073 127.526 21.3073C127.438 21.3073 127.352 21.3256 127.272 21.3609C127.191 21.3962 127.12 21.4478 127.06 21.5125C127.001 21.5771 126.956 21.6534 126.929 21.7363C126.901 21.8193 126.89 21.9072 126.898 21.9944Z" fill="white"/>
<path d="M131.474 19.6218L131.198 20.206C131.113 20.1343 131.006 20.096 130.895 20.0984C130.848 20.0957 130.801 20.1036 130.757 20.1213C130.713 20.139 130.673 20.1662 130.641 20.2009C130.608 20.2357 130.584 20.2771 130.57 20.3223C130.555 20.3674 130.551 20.4152 130.557 20.4622V20.7236H131.187V21.3437H130.578V23.25H129.799V21.3437H129.332V20.7236H129.799V20.5032C129.798 20.3642 129.827 20.2266 129.881 20.0988C129.936 19.971 130.016 19.8557 130.117 19.7598C130.217 19.6639 130.336 19.5895 130.467 19.5411C130.597 19.4927 130.736 19.4714 130.875 19.4783C131.093 19.4684 131.309 19.5238 131.495 19.6372" fill="white"/>
<path d="M136.076 20.7951C136.074 20.9674 136.036 21.1374 135.965 21.2942C135.893 21.451 135.79 21.5911 135.661 21.7055C135.532 21.8199 135.381 21.906 135.217 21.9584C135.052 22.0108 134.879 22.0283 134.708 22.0097H133.954V23.2498H133.145V19.5858H134.682C134.853 19.568 135.025 19.5859 135.189 19.6382C135.352 19.6906 135.503 19.7764 135.632 19.89C135.76 20.0037 135.864 20.1429 135.936 20.2987C136.008 20.4545 136.047 20.6235 136.05 20.7951H136.076ZM133.929 20.2417V21.3537H134.6C134.979 21.3537 135.236 21.1692 135.236 20.7951C135.236 20.4211 134.979 20.2417 134.6 20.2417H133.929Z" fill="white"/>
<path d="M139.238 21.9944C139.258 22.2796 139.193 22.5645 139.049 22.8118C138.906 23.0592 138.691 23.2576 138.433 23.3813C138.175 23.505 137.886 23.5483 137.604 23.5054C137.321 23.4626 137.057 23.3356 136.848 23.1411C136.638 22.9466 136.492 22.6934 136.428 22.4147C136.364 22.1359 136.386 21.8444 136.49 21.5781C136.594 21.3117 136.776 21.0829 137.012 20.9214C137.248 20.7598 137.527 20.673 137.813 20.6723C137.995 20.6589 138.178 20.6831 138.35 20.7435C138.522 20.8039 138.68 20.899 138.813 21.0231C138.947 21.1472 139.054 21.2974 139.127 21.4645C139.2 21.6317 139.238 21.812 139.238 21.9944ZM137.188 21.9944C137.188 22.1616 137.254 22.3219 137.373 22.4401C137.491 22.5583 137.651 22.6247 137.818 22.6247C137.986 22.6247 138.146 22.5583 138.264 22.4401C138.382 22.3219 138.449 22.1616 138.449 21.9944C138.449 21.8272 138.382 21.6669 138.264 21.5487C138.146 21.4305 137.986 21.3641 137.818 21.3641C137.651 21.3641 137.491 21.4305 137.373 21.5487C137.254 21.6669 137.188 21.8272 137.188 21.9944Z" fill="white"/>
<path d="M141.39 21.3998H141.324C141.193 21.3988 141.065 21.4284 140.948 21.4863C140.832 21.5442 140.73 21.6287 140.652 21.7329V23.2703H139.868V20.7234H140.565L140.611 21.0565C140.699 20.9324 140.816 20.8322 140.952 20.765C141.088 20.6979 141.239 20.6659 141.39 20.6721V21.3998Z" fill="white"/>
<path d="M143.02 20.7235H143.794V21.3435H143.02V22.2967C143.017 22.3454 143.025 22.3941 143.043 22.4393C143.062 22.4845 143.09 22.5252 143.125 22.5584C143.161 22.5916 143.204 22.6166 143.25 22.6316C143.296 22.6466 143.345 22.6512 143.394 22.6452C143.515 22.6486 143.634 22.6222 143.742 22.5683L143.937 23.1474C143.748 23.2497 143.537 23.3026 143.322 23.3011C143.183 23.3201 143.042 23.3083 142.908 23.2663C142.774 23.2244 142.651 23.1534 142.548 23.0584C142.444 22.9635 142.363 22.8469 142.31 22.717C142.257 22.5871 142.233 22.4471 142.241 22.3069V21.3435H141.759V20.7235H142.241V19.8831H143.02V20.7235Z" fill="white"/>
<path d="M147.073 21.9944C147.094 22.2796 147.028 22.5645 146.885 22.8118C146.741 23.0592 146.526 23.2576 146.269 23.3813C146.011 23.505 145.722 23.5483 145.439 23.5054C145.156 23.4626 144.893 23.3356 144.683 23.1411C144.474 22.9466 144.327 22.6934 144.264 22.4147C144.2 22.1359 144.221 21.8444 144.325 21.5781C144.43 21.3117 144.612 21.0829 144.848 20.9214C145.083 20.7598 145.363 20.673 145.649 20.6723C145.83 20.6589 146.013 20.6831 146.185 20.7435C146.357 20.8039 146.515 20.899 146.649 21.0231C146.783 21.1472 146.889 21.2974 146.962 21.4645C147.035 21.6317 147.073 21.812 147.073 21.9944ZM145.023 21.9944C145.016 22.0816 145.026 22.1695 145.054 22.2525C145.082 22.3354 145.127 22.4117 145.186 22.4763C145.245 22.541 145.317 22.5926 145.397 22.6279C145.477 22.6632 145.564 22.6815 145.651 22.6815C145.739 22.6815 145.825 22.6632 145.905 22.6279C145.986 22.5926 146.057 22.541 146.117 22.4763C146.176 22.4117 146.221 22.3354 146.248 22.2525C146.276 22.1695 146.287 22.0816 146.279 21.9944C146.287 21.9072 146.276 21.8193 146.248 21.7363C146.221 21.6534 146.176 21.5771 146.117 21.5125C146.057 21.4478 145.986 21.3962 145.905 21.3609C145.825 21.3256 145.739 21.3073 145.651 21.3073C145.564 21.3073 145.477 21.3256 145.397 21.3609C145.317 21.3962 145.245 21.4478 145.186 21.5125C145.127 21.5771 145.082 21.6534 145.054 21.7363C145.026 21.8193 145.016 21.9072 145.023 21.9944Z" fill="white"/>
<path d="M93.7426 24.3618L96.0384 18.7197H95.6182L93.3275 24.3618H93.7426Z" fill="white"/>
<path d="M25.6225 11.6736L32.7968 37.9828L0.66621 25.4739L25.6225 11.6736ZM25.7916 11.2688L0 25.5303L33.1709 38.4492L25.7916 11.2688Z" fill="white"/>
<path d="M34.7595 3.83313C34.7595 6.28777 32.8532 7.68676 30.7521 7.68676H28.7023V11.2739H25.7814V0H30.747C32.848 0 34.7543 1.39899 34.7543 3.85875L34.7595 3.83313ZM28.7177 2.50588V5.186H30.4549C30.6357 5.20211 30.8178 5.178 30.9882 5.11541C31.1586 5.05281 31.3129 4.95328 31.4403 4.82396C31.5676 4.69464 31.6649 4.53873 31.7248 4.36742C31.7848 4.19612 31.8061 4.01365 31.7873 3.83313C31.8025 3.65339 31.7786 3.47248 31.7173 3.30283C31.6561 3.13317 31.5588 2.97879 31.4322 2.85027C31.3056 2.72175 31.1528 2.62214 30.9841 2.55827C30.8154 2.4944 30.6349 2.46779 30.4549 2.48026L28.7177 2.50588Z" fill="white"/>
<path d="M44.0093 7.36395C44.0093 9.7161 42.2106 11.4226 39.7815 11.4226C37.3525 11.4226 35.5743 9.7161 35.5743 7.36395C35.5743 6.24541 36.0187 5.17268 36.8096 4.38175C37.6005 3.59082 38.6733 3.14648 39.7918 3.14648C40.9103 3.14648 41.9831 3.59082 42.774 4.38175C43.5649 5.17268 44.0093 6.24541 44.0093 7.36395ZM38.4338 7.36395C38.4338 8.28636 39.0026 8.97817 39.7815 8.97817C39.9786 8.96539 40.1711 8.91306 40.3475 8.82429C40.5239 8.73552 40.6806 8.61213 40.8083 8.46149C40.936 8.31084 41.032 8.13602 41.0907 7.94746C41.1494 7.7589 41.1695 7.56045 41.1498 7.36395C41.1498 6.42617 40.5656 5.71899 39.7815 5.71899C38.9975 5.71899 38.4338 6.42617 38.4338 7.36395Z" fill="white"/>
<path d="M50.5686 6.07259H50.338C49.9901 6.06362 49.6448 6.13367 49.3279 6.27747C49.011 6.42126 48.7309 6.63506 48.5085 6.90276V11.2688H45.6849V3.43348H48.1703L48.3394 4.45838C48.5762 4.09022 48.905 3.79022 49.2932 3.58801C49.6815 3.3858 50.1158 3.28837 50.5532 3.30536L50.5686 6.07259Z" fill="white"/>
<path d="M56.0826 3.43335H58.1324V5.79575H56.0826V8.0864C56.0791 8.19969 56.0998 8.31243 56.1435 8.41703C56.1871 8.52164 56.2527 8.61569 56.3357 8.69288C56.4187 8.77006 56.5173 8.82858 56.6248 8.86451C56.7323 8.90044 56.8462 8.91295 56.9589 8.9012C57.2793 8.90501 57.5957 8.83116 57.8813 8.68597L58.5578 10.8998C57.9939 11.2451 57.3433 11.4228 56.6822 11.4122C54.5606 11.4122 53.2539 10.2131 53.2539 8.1069V5.79575H51.9369V3.43335H53.2539V2.62368L56.0826 0.881348V3.43335Z" fill="white"/>
<path d="M67.7869 7.36393C67.7869 9.71608 65.9933 11.4225 63.5643 11.4225C61.1353 11.4225 59.3571 9.71608 59.3571 7.36393C59.3952 6.27151 59.8559 5.23654 60.6422 4.4772C61.4285 3.71786 62.4789 3.29346 63.572 3.29346C64.6651 3.29346 65.7155 3.71786 66.5018 4.4772C67.2881 5.23654 67.7488 6.27151 67.7869 7.36393ZM62.2114 7.36393C62.2114 8.28635 62.7803 8.97815 63.5643 8.97815C63.7614 8.96538 63.9538 8.91304 64.1303 8.82427C64.3067 8.7355 64.4633 8.61211 64.591 8.46147C64.7187 8.31083 64.8148 8.13601 64.8735 7.94744C64.9321 7.75888 64.9522 7.56043 64.9325 7.36393C64.9325 6.42615 64.3484 5.71897 63.5643 5.71897C62.7803 5.71897 62.2114 6.42615 62.2114 7.36393Z" fill="white"/>
<path d="M8.26583 17.3618C8.27724 17.7495 8.20171 18.1348 8.04476 18.4895C7.8878 18.8442 7.65339 19.1593 7.35878 19.4116C7.91264 19.6142 8.3866 19.9897 8.71053 20.4825C9.03446 20.9753 9.19117 21.5593 9.15749 22.1481C9.15749 24.3311 7.4049 25.5251 5.3756 25.5251H0V14.2512H4.61205C6.79509 14.2512 8.24018 15.4042 8.24018 17.372L8.26583 17.3618ZM2.89536 16.9108V18.6942H4.21233C4.82727 18.6942 5.27313 18.3713 5.27313 17.8025C5.27313 17.2337 4.82727 16.9108 4.21233 16.9108H2.89536ZM2.89536 20.8875V22.886H4.981C5.67281 22.886 6.16479 22.5324 6.16479 21.8611C6.16479 21.1898 5.65231 20.8618 4.981 20.8618L2.89536 20.8875Z" fill="white"/>
<path d="M18.2483 25.5302H15.7322L15.5938 24.7513C15.3483 25.0699 15.027 25.3222 14.6591 25.4851C14.2913 25.6479 13.8886 25.7163 13.4876 25.6839C11.5967 25.6839 10.6436 24.3208 10.6436 22.1378V17.7H13.4723V21.984C13.4723 22.6144 13.749 23.0448 14.3332 23.0448C14.5596 23.043 14.7813 22.9789 14.9738 22.8596C15.1663 22.7403 15.3223 22.5704 15.4247 22.3684V17.7H18.2483V25.5302Z" fill="white"/>
<path d="M26.5142 18.3765L25.4892 20.3084C24.9878 19.884 24.3527 19.6499 23.6957 19.6474C23.1832 19.6474 22.9731 19.8011 22.9731 20.0625C22.9731 20.3238 23.1422 20.4314 24.2133 20.6928C25.7506 21.0617 26.5193 21.7997 26.5193 22.9681C26.5193 24.5976 25.1664 25.684 22.8963 25.684C21.8074 25.7291 20.735 25.406 19.8523 24.7668L20.8772 22.8297C21.4465 23.3211 22.175 23.5888 22.927 23.583C23.4394 23.583 23.7111 23.46 23.7111 23.1679C23.7111 22.8758 23.5727 22.7221 22.6349 22.4915C20.9746 22.0764 20.1598 21.4666 20.1598 20.2623C20.1598 18.6378 21.4512 17.5463 23.7111 17.5463C24.7094 17.4972 25.6945 17.79 26.5039 18.3765" fill="white"/>
<path d="M31.2595 15.2557C31.2595 15.5691 31.1665 15.8754 30.9922 16.1359C30.818 16.3964 30.5704 16.5994 30.2808 16.7191C29.9912 16.8388 29.6725 16.8698 29.3652 16.8083C29.0579 16.7468 28.7758 16.5955 28.5545 16.3735C28.3333 16.1516 28.1829 15.8689 28.1223 15.5614C28.0618 15.2539 28.0939 14.9354 28.2145 14.6461C28.3352 14.3569 28.5389 14.1099 28.8 13.9366C29.0611 13.7632 29.3677 13.6712 29.6811 13.6722C29.8904 13.6665 30.0986 13.7036 30.293 13.7813C30.4874 13.8589 30.6639 13.9754 30.8116 14.1237C30.9594 14.2719 31.0754 14.4488 31.1524 14.6435C31.2294 14.8381 31.2658 15.0464 31.2595 15.2557ZM31.0904 25.5047H28.2668V17.7001H31.0904V25.5047Z" fill="white"/>
<path d="M40.9397 21.0719V25.5302H38.111V21.2461C38.111 20.6158 37.7933 20.1854 37.2245 20.1854C36.9995 20.1847 36.7789 20.2479 36.5884 20.3677C36.3979 20.4874 36.2453 20.6588 36.1483 20.8618V25.5302H33.3093V17.7H35.8306L35.9689 18.484C36.2018 18.1654 36.5126 17.9118 36.8715 17.7476C37.2304 17.5834 37.6254 17.5141 38.0187 17.5462C39.9558 17.5462 40.9551 18.9094 40.9551 21.0924" fill="white"/>
<path d="M50.2817 21.4921V22.2916H45.3161C45.3468 22.9834 45.8285 23.3985 46.6689 23.3985C46.9399 23.4022 47.2086 23.3463 47.4556 23.2347C47.7027 23.1231 47.9222 22.9586 48.0986 22.7528L50.0203 24.2901C49.5957 24.7607 49.071 25.1302 48.4848 25.3714C47.8987 25.6126 47.2659 25.7194 46.633 25.684C44.1476 25.684 42.4873 23.9827 42.4873 21.6305C42.4633 21.0858 42.553 20.542 42.7505 20.0337C42.948 19.5255 43.2491 19.0639 43.6347 18.6783C44.0203 18.2927 44.4819 17.9916 44.9902 17.7941C45.4984 17.5965 46.0422 17.5069 46.5869 17.5309C49.1492 17.5309 50.3073 19.3399 50.3073 21.4768L50.2817 21.4921ZM45.3416 20.6927H47.5247C47.5359 20.5455 47.5169 20.3974 47.469 20.2577C47.421 20.118 47.345 19.9896 47.2458 19.8802C47.1465 19.7709 47.0259 19.6829 46.8915 19.6217C46.7571 19.5605 46.6116 19.5274 46.4639 19.5243C46.3128 19.5249 46.1633 19.5559 46.0244 19.6154C45.8854 19.6749 45.7599 19.7617 45.6552 19.8707C45.5505 19.9797 45.4688 20.1087 45.415 20.2499C45.3611 20.3911 45.3362 20.5417 45.3416 20.6927Z" fill="white"/>
<path d="M58.1017 18.3764L57.0768 20.3083C56.5737 19.8831 55.9368 19.6491 55.2781 19.6473C54.7656 19.6473 54.5555 19.801 54.5555 20.0624C54.5555 20.3237 54.7246 20.4313 55.8008 20.6927C57.3381 21.0617 58.1068 21.7996 58.1068 22.968C58.1068 24.5976 56.754 25.684 54.4787 25.684C53.3912 25.7299 52.3202 25.4066 51.4398 24.7667L52.4647 22.8296C53.034 23.321 53.7625 23.5887 54.5145 23.5829C55.027 23.5829 55.2986 23.4599 55.2986 23.1678C55.2986 22.8757 55.1602 22.722 54.2225 22.4914C52.5621 22.0763 51.7524 21.4665 51.7524 20.2622C51.7524 18.6378 53.0387 17.5462 55.2986 17.5462C56.2986 17.4963 57.2856 17.7892 58.0965 18.3764" fill="white"/>
<path d="M65.8857 18.3764L64.8608 20.3084C64.3602 19.8823 63.7246 19.6481 63.0673 19.6473C62.5548 19.6473 62.3447 19.801 62.3447 20.0624C62.3447 20.3237 62.5138 20.4313 63.59 20.6927C65.1273 21.0617 65.8909 21.7996 65.8909 22.968C65.8909 24.5976 64.5431 25.684 62.2679 25.684C61.1789 25.7291 60.1066 25.4059 59.2239 24.7667L60.2488 22.8296C60.8181 23.321 61.5466 23.5887 62.2986 23.5829C62.811 23.5829 63.0826 23.4599 63.0826 23.1678C63.0826 22.8757 62.9443 22.722 62.0065 22.4914C60.3462 22.0763 59.5314 21.4665 59.5314 20.2622C59.5314 18.6378 60.8227 17.5463 63.0826 17.5463C64.081 17.4963 65.0665 17.7892 65.8755 18.3764" fill="white"/>
<path d="M41.8928 29.4916L40.3862 31.9052C39.6424 31.2811 38.6974 30.9479 37.7266 30.9674C36.8964 30.9674 36.4967 31.2442 36.4967 31.7822C36.4967 32.1615 36.7734 32.4382 38.2954 32.6995C41.3701 33.3298 42.2003 34.4982 42.2003 36.2201C42.2003 38.4902 40.54 39.9968 37.742 39.9968C36.0866 40.0477 34.468 39.5021 33.1812 38.4595L34.7493 36.0305C35.5601 36.8588 36.665 37.3339 37.824 37.3526C38.8489 37.3526 39.2691 37.0605 39.2691 36.507C39.2691 36.1073 38.9462 35.8306 37.4243 35.5539C34.3854 34.9082 33.5552 33.5707 33.5552 31.9667C33.5552 29.9169 35.1695 28.3386 37.7317 28.3386C39.2058 28.2836 40.6592 28.6981 41.8826 29.5223" fill="white"/>
<path d="M50.6763 33.668L48.7136 35.1131C48.617 34.8472 48.4383 34.619 48.2034 34.4615C47.9684 34.3039 47.6895 34.2253 47.4068 34.2368C46.5613 34.2368 46.1001 34.9901 46.1001 35.8818C46.1001 36.7734 46.5613 37.5267 47.4068 37.5267C47.6939 37.5315 47.9756 37.4487 48.2146 37.2894C48.4535 37.1301 48.6383 36.9019 48.7443 36.6351L50.6763 38.0956C50.3493 38.6743 49.8706 39.1529 49.2918 39.4798C48.713 39.8067 48.0559 39.9695 47.3915 39.9506C46.8571 39.9506 46.3281 39.8454 45.8344 39.6409C45.3407 39.4364 44.8922 39.1367 44.5144 38.7589C44.1365 38.3811 43.8368 37.9325 43.6323 37.4389C43.4279 36.9452 43.3226 36.4161 43.3226 35.8818C43.3226 35.3475 43.4279 34.8184 43.6323 34.3247C43.8368 33.831 44.1365 33.3825 44.5144 33.0047C44.8922 32.6268 45.3407 32.3271 45.8344 32.1227C46.3281 31.9182 46.8571 31.8129 47.3915 31.8129C48.0561 31.7929 48.7136 31.9552 49.2926 32.2822C49.8717 32.6092 50.3502 33.0885 50.6763 33.668Z" fill="white"/>
<path d="M54.8578 32.5304C55.0993 32.2872 55.3892 32.0976 55.7088 31.974C56.0285 31.8504 56.3706 31.7955 56.7129 31.8129C58.6499 31.8129 59.6492 33.176 59.6492 35.3591V39.7969H56.8205V35.5128C56.8205 34.8825 56.5027 34.4521 55.9339 34.4521C55.7089 34.4514 55.4884 34.5146 55.2979 34.6344C55.1074 34.7541 54.9548 34.9255 54.8578 35.1285V39.7969H52.0291V28.1233H54.8578V32.5304Z" fill="white"/>
<path d="M69.6009 35.8971C69.6009 38.2493 67.8074 39.9506 65.3783 39.9506C62.9493 39.9506 61.1711 38.2493 61.1711 35.8971C61.2092 34.8047 61.67 33.7697 62.4563 33.0104C63.2426 32.2511 64.2929 31.8267 65.386 31.8267C66.4791 31.8267 67.5295 32.2511 68.3158 33.0104C69.1021 33.7697 69.5628 34.8047 69.6009 35.8971ZM64.0255 35.8971C64.0255 36.8195 64.5943 37.5114 65.3783 37.5114C65.5754 37.4986 65.7679 37.4462 65.9443 37.3575C66.1207 37.2687 66.2774 37.1453 66.4051 36.9947C66.5328 36.844 66.6289 36.6692 66.6876 36.4806C66.7462 36.2921 66.7663 36.0936 66.7466 35.8971C66.7466 34.9594 66.1624 34.2522 65.3783 34.2522C64.5943 34.2522 64.0255 34.9594 64.0255 35.8971Z" fill="white"/>
<path d="M79.358 35.8972C79.358 38.2493 77.5593 39.9506 75.1354 39.9506C72.7115 39.9506 70.9231 38.2493 70.9231 35.8972C70.9231 34.7786 71.3674 33.7059 72.1584 32.915C72.9493 32.124 74.022 31.6797 75.1406 31.6797C76.2591 31.6797 77.3318 32.124 78.1227 32.915C78.9137 33.7059 79.358 34.7786 79.358 35.8972ZM73.7825 35.8972C73.7825 36.8196 74.3514 37.5114 75.1354 37.5114C75.3325 37.4986 75.525 37.4463 75.7014 37.3575C75.8778 37.2687 76.0345 37.1453 76.1622 36.9947C76.2899 36.844 76.3859 36.6692 76.4446 36.4807C76.5032 36.2921 76.5234 36.0937 76.5037 35.8972C76.5037 34.9594 75.9195 34.2522 75.1354 34.2522C74.3514 34.2522 73.7825 34.9594 73.7825 35.8972Z" fill="white"/>
<path d="M83.8625 28.1233H81.0338V39.7969H83.8625V28.1233Z" fill="white"/>
</svg>
