<svg width="252" height="256" viewBox="0 0 252 256" fill="none" xmlns="http://www.w3.org/2000/svg">
<path d="M251.74 91.34C251.711 67.124 242.078 43.9082 224.955 26.785C207.832 9.66171 184.616 0.0291105 160.4 0C139.032 0.0245191 118.347 7.52829 101.933 21.2095C85.5195 34.8907 74.4128 53.886 70.54 74.9C50.8225 79.5413 33.1958 90.5786 20.41 106.29C7.21905 122.575 0.0146122 142.893 0 163.85C0.0264693 188.067 9.65827 211.284 26.7821 228.408C43.9059 245.532 67.1233 255.164 91.3401 255.19C113.086 255.192 134.12 247.437 150.66 233.32C166.708 219.604 177.516 200.758 181.25 179.98C222.18 169.83 251.74 132.72 251.74 91.34ZM179.6 177.34L179.95 178.8L178.47 178.55C175.02 199.006 164.485 217.598 148.71 231.07C132.712 244.72 112.371 252.219 91.3401 252.22C67.919 252.193 45.4647 242.878 28.9034 226.317C12.3422 209.755 3.02647 187.301 3 163.88C3.01386 143.611 9.98192 123.96 22.7401 108.21C34.827 93.3267 51.4124 82.7621 70.01 78.1C69.3576 82.4767 69.0233 86.8949 69.01 91.3199C68.9255 114.686 77.884 137.18 94.01 154.09L71.1801 150.34L70.6901 153.34L99.53 158.08L100.1 128.86L97.1001 128.8L96.64 152.53C80.7724 136.13 71.9411 114.179 72.03 91.36C72.0257 86.5501 72.4103 81.7478 73.1801 77C74.1101 76.8 75.0501 76.6 75.9801 76.44L75.64 74.44C74.94 74.56 74.2501 74.71 73.5601 74.85C77.4187 54.6478 88.1949 36.421 104.036 23.303C119.877 10.185 139.793 2.99528 160.36 2.96997C183.781 2.99644 206.235 12.3122 222.797 28.8734C239.358 45.4346 248.674 67.8889 248.7 91.31C248.74 131.66 219.66 167.82 179.6 177.31V177.34Z" fill="url(#paint0_linear_34_501)"/>
<path d="M79.6801 73.8599L79.9301 75.8599C81.2401 75.6899 82.56 75.5499 83.87 75.4399L83.7001 73.4399C82.3601 73.5499 81.0101 73.6899 79.6801 73.8599Z" fill="url(#paint1_linear_34_501)"/>
<path d="M111.37 77.3599C112.65 77.6499 113.94 77.9699 115.21 78.3599L115.74 76.4399C114.44 76.0799 113.13 75.7399 111.82 75.4399L111.37 77.3599Z" fill="url(#paint2_linear_34_501)"/>
<path d="M103.6 75.9399C104.9 76.1099 106.22 76.3199 107.5 76.5599L107.86 74.5599C106.55 74.3199 105.2 74.1099 103.86 73.9199L103.6 75.9399Z" fill="url(#paint3_linear_34_501)"/>
<path d="M126.41 82.2599C127.61 82.7699 128.82 83.3299 130.01 83.8999L130.88 82.0999C129.67 81.5099 128.43 80.9499 127.2 80.4199L126.41 82.2599Z" fill="url(#paint4_linear_34_501)"/>
<path d="M133.54 85.7C134.69 86.32 135.85 86.98 136.98 87.7L137.98 85.98C136.82 85.29 135.64 84.62 134.46 83.98L133.54 85.7Z" fill="url(#paint5_linear_34_501)"/>
<path d="M118.99 79.47C120.25 79.88 121.5 80.32 122.73 80.78L123.44 78.91C122.18 78.43 120.89 77.9801 119.61 77.5601L118.99 79.47Z" fill="url(#paint6_linear_34_501)"/>
<path d="M87.7301 73.18L87.8101 75.18C89.0101 75.13 90.2301 75.11 91.4301 75.11H91.77V73.11H91.42C90.18 73.1 88.9501 73.1 87.7301 73.18Z" fill="url(#paint7_linear_34_501)"/>
<path d="M140.33 89.7701C141.43 90.4901 142.53 91.2501 143.58 92.0201L144.76 90.4001C143.68 89.6201 142.56 88.8401 141.43 88.1001L140.33 89.7701Z" fill="url(#paint8_linear_34_501)"/>
<path d="M95.7201 75.21C97.0301 75.27 98.3601 75.36 99.7201 75.48L99.9 73.48C98.56 73.36 97.21 73.27 95.9 73.2L95.7201 75.21Z" fill="url(#paint9_linear_34_501)"/>
<path d="M180.18 159.17L182.18 159.06C182.11 157.72 182 156.37 181.87 155.06L179.87 155.26C179.98 156.53 180.08 157.86 180.18 159.17Z" fill="url(#paint10_linear_34_501)"/>
<path d="M176.3 131.49L174.43 132.2C174.9 133.43 175.35 134.68 175.77 135.93L177.66 135.3C177.24 134.02 176.78 132.74 176.3 131.49Z" fill="url(#paint11_linear_34_501)"/>
<path d="M180.7 147.03L178.7 147.4C178.94 148.69 179.16 150 179.34 151.3L181.34 151.02C181.18 149.69 180.95 148.35 180.7 147.03Z" fill="url(#paint12_linear_34_501)"/>
<path d="M173.09 124.1L171.29 124.98C171.86 126.16 172.42 127.36 172.94 128.56L174.78 127.77C174.24 126.53 173.67 125.29 173.09 124.1Z" fill="url(#paint13_linear_34_501)"/>
<path d="M178.85 139.16L176.93 139.71C177.29 140.97 177.62 142.26 177.93 143.53L179.93 143.08C179.56 141.77 179.18 140.46 178.85 139.16Z" fill="url(#paint14_linear_34_501)"/>
<path d="M146.73 94.4201C147.73 95.2401 148.79 96.0901 149.73 96.9501L151.05 95.4401C150.05 94.5601 149 93.6901 147.94 92.8501L146.73 94.4201Z" fill="url(#paint15_linear_34_501)"/>
<path d="M179.6 174.96L181.6 175.21C181.76 173.88 181.9 172.53 182 171.21L180 171.05C179.89 172.34 179.76 173.66 179.6 174.96Z" fill="url(#paint16_linear_34_501)"/>
<path d="M180.27 163.1V163.93C180.27 164.93 180.27 166.02 180.21 167.06L182.21 167.13C182.21 166.07 182.27 165 182.27 163.94V163.1H180.27Z" fill="url(#paint17_linear_34_501)"/>
<path d="M158.18 105.31C159.04 106.31 159.9 107.31 160.72 108.31L162.28 107.06C161.44 106.06 160.57 104.97 159.68 103.96L158.18 105.31Z" fill="url(#paint18_linear_34_501)"/>
<path d="M167.51 118.04C168.19 119.17 168.85 120.32 169.51 121.46L171.26 120.46C170.62 119.28 169.95 118.11 169.26 116.96L167.51 118.04Z" fill="url(#paint19_linear_34_501)"/>
<path d="M152.7 99.6099C153.7 100.52 154.59 101.45 155.5 102.4L156.94 101.02C156.01 100.02 155.05 99.0899 154.08 98.1599L152.7 99.6099Z" fill="url(#paint20_linear_34_501)"/>
<path d="M163.18 111.47C163.95 112.53 164.71 113.62 165.44 114.71L167.1 113.6C166.36 112.48 165.58 111.37 164.79 110.29L163.18 111.47Z" fill="url(#paint21_linear_34_501)"/>
<defs>
<linearGradient id="paint0_linear_34_501" x1="251.74" y1="0" x2="-44.8933" y2="73.1558" gradientUnits="userSpaceOnUse">
<stop stop-color="#62F9BB"/>
<stop offset="1" stop-color="#776AF6"/>
</linearGradient>
<linearGradient id="paint1_linear_34_501" x1="83.87" y1="73.4399" x2="79.459" y2="75.3492" gradientUnits="userSpaceOnUse">
<stop stop-color="#62F9BB"/>
<stop offset="1" stop-color="#776AF6"/>
</linearGradient>
<linearGradient id="paint2_linear_34_501" x1="115.74" y1="75.4399" x2="110.948" y2="77.2328" gradientUnits="userSpaceOnUse">
<stop stop-color="#62F9BB"/>
<stop offset="1" stop-color="#776AF6"/>
</linearGradient>
<linearGradient id="paint3_linear_34_501" x1="107.86" y1="73.9199" x2="103.28" y2="75.7674" gradientUnits="userSpaceOnUse">
<stop stop-color="#62F9BB"/>
<stop offset="1" stop-color="#776AF6"/>
</linearGradient>
<linearGradient id="paint4_linear_34_501" x1="130.88" y1="80.4199" x2="125.815" y2="82.0464" gradientUnits="userSpaceOnUse">
<stop stop-color="#62F9BB"/>
<stop offset="1" stop-color="#776AF6"/>
</linearGradient>
<linearGradient id="paint5_linear_34_501" x1="137.98" y1="83.98" x2="132.884" y2="85.5007" gradientUnits="userSpaceOnUse">
<stop stop-color="#62F9BB"/>
<stop offset="1" stop-color="#776AF6"/>
</linearGradient>
<linearGradient id="paint6_linear_34_501" x1="123.44" y1="77.5601" x2="118.471" y2="79.2769" gradientUnits="userSpaceOnUse">
<stop stop-color="#62F9BB"/>
<stop offset="1" stop-color="#776AF6"/>
</linearGradient>
<linearGradient id="paint7_linear_34_501" x1="91.77" y1="73.1055" x2="87.6877" y2="75.0929" gradientUnits="userSpaceOnUse">
<stop stop-color="#62F9BB"/>
<stop offset="1" stop-color="#776AF6"/>
</linearGradient>
<linearGradient id="paint8_linear_34_501" x1="144.76" y1="88.1001" x2="139.632" y2="89.5489" gradientUnits="userSpaceOnUse">
<stop stop-color="#62F9BB"/>
<stop offset="1" stop-color="#776AF6"/>
</linearGradient>
<linearGradient id="paint9_linear_34_501" x1="99.9" y1="73.2" x2="95.5821" y2="75.1789" gradientUnits="userSpaceOnUse">
<stop stop-color="#62F9BB"/>
<stop offset="1" stop-color="#776AF6"/>
</linearGradient>
<linearGradient id="paint10_linear_34_501" x1="182.18" y1="155.06" x2="179.349" y2="155.458" gradientUnits="userSpaceOnUse">
<stop stop-color="#62F9BB"/>
<stop offset="1" stop-color="#776AF6"/>
</linearGradient>
<linearGradient id="paint11_linear_34_501" x1="177.66" y1="131.49" x2="173.752" y2="132.201" gradientUnits="userSpaceOnUse">
<stop stop-color="#62F9BB"/>
<stop offset="1" stop-color="#776AF6"/>
</linearGradient>
<linearGradient id="paint12_linear_34_501" x1="181.34" y1="147.03" x2="178.117" y2="147.528" gradientUnits="userSpaceOnUse">
<stop stop-color="#62F9BB"/>
<stop offset="1" stop-color="#776AF6"/>
</linearGradient>
<linearGradient id="paint13_linear_34_501" x1="174.78" y1="124.1" x2="170.578" y2="124.922" gradientUnits="userSpaceOnUse">
<stop stop-color="#62F9BB"/>
<stop offset="1" stop-color="#776AF6"/>
</linearGradient>
<linearGradient id="paint14_linear_34_501" x1="179.93" y1="139.16" x2="176.287" y2="139.785" gradientUnits="userSpaceOnUse">
<stop stop-color="#62F9BB"/>
<stop offset="1" stop-color="#776AF6"/>
</linearGradient>
<linearGradient id="paint15_linear_34_501" x1="151.05" y1="92.8501" x2="146" y2="94.1802" gradientUnits="userSpaceOnUse">
<stop stop-color="#62F9BB"/>
<stop offset="1" stop-color="#776AF6"/>
</linearGradient>
<linearGradient id="paint16_linear_34_501" x1="182" y1="171.05" x2="179.061" y2="171.474" gradientUnits="userSpaceOnUse">
<stop stop-color="#62F9BB"/>
<stop offset="1" stop-color="#776AF6"/>
</linearGradient>
<linearGradient id="paint17_linear_34_501" x1="182.27" y1="163.1" x2="179.736" y2="163.424" gradientUnits="userSpaceOnUse">
<stop stop-color="#62F9BB"/>
<stop offset="1" stop-color="#776AF6"/>
</linearGradient>
<linearGradient id="paint18_linear_34_501" x1="162.28" y1="103.96" x2="157.425" y2="105.104" gradientUnits="userSpaceOnUse">
<stop stop-color="#62F9BB"/>
<stop offset="1" stop-color="#776AF6"/>
</linearGradient>
<linearGradient id="paint19_linear_34_501" x1="171.26" y1="116.96" x2="166.767" y2="117.896" gradientUnits="userSpaceOnUse">
<stop stop-color="#62F9BB"/>
<stop offset="1" stop-color="#776AF6"/>
</linearGradient>
<linearGradient id="paint20_linear_34_501" x1="156.94" y1="98.1599" x2="151.952" y2="99.407" gradientUnits="userSpaceOnUse">
<stop stop-color="#62F9BB"/>
<stop offset="1" stop-color="#776AF6"/>
</linearGradient>
<linearGradient id="paint21_linear_34_501" x1="167.1" y1="110.29" x2="162.43" y2="111.326" gradientUnits="userSpaceOnUse">
<stop stop-color="#62F9BB"/>
<stop offset="1" stop-color="#776AF6"/>
</linearGradient>
</defs>
</svg>
